<svg xmlns="http://www.w3.org/2000/svg" preserveAspectRatio="xMidYMid" width="60" height="45" viewBox="0 0 60 45"><defs><style>.bank-card-1,.bank-card-4{fill:#d6d9d9}.bank-card-2{fill:#707276}.bank-card-3{fill:#e9eff0}.bank-card-4{fill-rule:evenodd}.bank-card-5{fill:#ff9f02}</style></defs><rect x="10" width="50" height="35" rx="2" ry="2" class="bank-card-1"/><path class="bank-card-2" d="M10 5h50v10H10z"/><rect y="10" width="50" height="35" rx="2" ry="2" class="bank-card-3"/><path d="M43.5 37h-4a1.5 1.5 0 0 1 0-3h4a1.5 1.5 0 0 1 0 3zm-11 0h-4a1.5 1.5 0 0 1 0-3h4a1.5 1.5 0 0 1 0 3zm-11 0h-4a1.5 1.5 0 0 1 0-3h4a1.5 1.5 0 0 1 0 3zm-11 0h-4a1.5 1.5 0 0 1 0-3h4a1.5 1.5 0 0 1 0 3z" class="bank-card-4"/><rect x="5" y="23" width="7" height="6" rx="2" ry="2" class="bank-card-5"/></svg>