<svg xmlns="http://www.w3.org/2000/svg" preserveAspectRatio="xMidYMid" width="58.031" height="59.969" viewBox="0 0 58.031 59.969"><defs><style>.qiwi-1{fill:#ff9f02;fill-rule:evenodd}</style></defs><path d="M57.83 58.962c.542.672-.282 1.354-.897.809-6.138-5.438-11.301-6.978-16.407-7.192-2.71-.113-5.404.147-8.219.396-.563.049-1.13.099-1.704.144l-.754.058c-.993.107-1.999.164-3.02.164-4.804 0-9.337-1.178-13.476-3.501-4.153-2.33-7.454-5.584-9.81-9.673-2.352-4.08-3.544-8.588-3.544-13.4 0-4.807 1.191-9.334 3.54-13.456 2.353-4.128 5.616-7.415 9.698-9.768 4.082-2.351 8.535-3.544 13.236-3.544 4.909 0 9.498 1.178 13.638 3.502 4.153 2.33 7.463 5.594 9.842 9.703 2.373 4.104 3.577 8.624 3.577 13.434 0 1.858-.18 3.671-.534 5.435a12.26 12.26 0 0 1-.204.927c-.069.29-.142.578-.221.865l-.022-.013c-.476 1.523-1.361 3.678-3.009 6.445-.177.291-.276.07-.299-.093-.576-4.07-2.36-7.161-5.503-9.157a13.92 13.92 0 0 0-1.81-.961 17.045 17.045 0 0 0-2.426-.849c-.533-.143-1.721-.082-1.29-.509.177-.176 2.751-.217 5.71-.029l.173.011c.055-.621.083-1.257.083-1.909 0-5.079-1.681-9.22-5.139-12.658-3.461-3.441-7.507-5.115-12.371-5.115-4.981 0-9.02 1.675-12.346 5.122-3.345 3.463-4.97 7.569-4.97 12.552 0 4.973 1.671 9.061 5.11 12.5 3.438 3.439 7.431 5.111 12.206 5.111.229 0 .455-.007.681-.014l-.014-.173c-.274-3.506-.332-6.419.388-5.243.254.415.508.807.76 1.185.942 1.408 1.873 2.566 2.801 3.527l.14.142c3.395 3.446 6.736 4.294 10.288 5.165l.226.056c.582.143 1.169.289 1.763.448 4.222 1.126 8.794 2.943 14.129 9.556m-11.713-21.2c-.525-.154-.917-.04-1.11.314-.293.535-.077 1.594.514 2.517.599.935 1.107 1.408 1.512 1.408a.47.47 0 0 0 .361-.169c.225-.258.299-.799.205-1.483-.095-.7-.525-2.138-1.482-2.587m-5.913 4.364c-.536 0-.983.186-1.258.526-.704.868-.388 2.397.691 3.34.471.411 1.149.657 1.815.657.678 0 1.243-.254 1.592-.716.628-.841.267-2.033-.919-3.036-.588-.497-1.27-.771-1.921-.771" class="qiwi-1"/></svg>