<svg xmlns="http://www.w3.org/2000/svg" preserveAspectRatio="xMidYMid" width="50" height="50" viewBox="0 0 50 50"><defs><style>.webmoney-1{fill:#036cb5;fill-rule:evenodd}</style></defs><path d="M47.036 28.944l-2.666-2.973 2.961-2.676 2.667 2.972-2.962 2.677zM40.584 17.14l2.961-2.676 2.666 2.972-2.96 2.676-2.667-2.972zM36.8 8.308l2.961-2.676 2.667 2.972-2.962 2.676L36.8 8.308zm-5.169-6.469l-5.815 5.205-3.454-3.783-10.831 9.799 6.944 7.681-2.729 2.409 6.84 7.692-2.713 2.403 9.773 10.919 5.802-5.36 5.015 5.744a26.498 26.498 0 0 1-3.281 2.188 24.653 24.653 0 0 1-12.281 3.265c-13.719 0-24.908-11.232-24.908-25C-.007 11.23 11.182-.001 24.901-.001c3.912 0 7.616.914 10.914 2.537.519.247 1.036.519 1.553.818l-2.292 2.06-3.445-3.575zm7.256 31.395l-4.001-4.459 4.444-4.015 3.999 4.459-4.442 4.015zm.643-13.437l-4.441 4.014-4.001-4.457 4.442-4.016 4 4.459zm-4.095-8.965l-4.442 4.015-4-4.46 4.442-4.014 4 4.459zM22.047 7.916l5.332 5.945-5.923 5.352-5.332-5.945 5.923-5.352zm13.785 26.369l-5.924 5.354-5.334-5.946 5.923-5.353 5.335 5.945zm-9.547-16.219l5.334 5.947-5.923 5.352-5.334-5.945 5.923-5.354zm16.95 15.699l4.001 4.459-4.442 4.014-4-4.457 4.441-4.016z" class="webmoney-1"/></svg>