<svg xmlns="http://www.w3.org/2000/svg" xmlns:xlink="http://www.w3.org/1999/xlink" width="60" height="45" preserveAspectRatio="xMidYMid" viewBox="0 0 60 45"><defs><style>.bank-card-1,.bank-card-4{fill:#d6d9d9}.bank-card-2{fill:#707276}.bank-card-3{fill:#e9eff0}.bank-card-4{fill-rule:evenodd}.bank-card-5{fill:#ff9f02}</style></defs><g><rect width="50" height="35" x="10" class="bank-card-1" rx="2" ry="2"/><rect width="50" height="10" x="10" y="5" class="bank-card-2"/><rect width="50" height="35" y="10" class="bank-card-3" rx="2" ry="2"/><path d="M43.500,37.000 L39.500,37.000 C38.672,37.000 38.000,36.328 38.000,35.500 C38.000,34.672 38.672,34.000 39.500,34.000 L43.500,34.000 C44.328,34.000 45.000,34.672 45.000,35.500 C45.000,36.328 44.328,37.000 43.500,37.000 ZM32.500,37.000 L28.500,37.000 C27.672,37.000 27.000,36.328 27.000,35.500 C27.000,34.672 27.672,34.000 28.500,34.000 L32.500,34.000 C33.328,34.000 34.000,34.672 34.000,35.500 C34.000,36.328 33.328,37.000 32.500,37.000 ZM21.500,37.000 L17.500,37.000 C16.672,37.000 16.000,36.328 16.000,35.500 C16.000,34.672 16.672,34.000 17.500,34.000 L21.500,34.000 C22.328,34.000 23.000,34.672 23.000,35.500 C23.000,36.328 22.328,37.000 21.500,37.000 ZM10.500,37.000 L6.500,37.000 C5.672,37.000 5.000,36.328 5.000,35.500 C5.000,34.672 5.672,34.000 6.500,34.000 L10.500,34.000 C11.328,34.000 12.000,34.672 12.000,35.500 C12.000,36.328 11.328,37.000 10.500,37.000 Z" class="bank-card-4"/><rect width="7" height="6" x="5" y="23" class="bank-card-5" rx="2" ry="2"/></g></svg>