<svg xmlns="http://www.w3.org/2000/svg" xmlns:xlink="http://www.w3.org/1999/xlink" width="58.031" height="59.969" preserveAspectRatio="xMidYMid" viewBox="0 0 58.031 59.969"><defs><style>.qiwi-1{fill:#ff9f02;fill-rule:evenodd}</style></defs><path d="M57.830,58.962 C58.372,59.634 57.548,60.316 56.933,59.771 C50.795,54.333 45.632,52.793 40.526,52.579 C37.816,52.466 35.122,52.726 32.307,52.975 C31.744,53.024 31.177,53.074 30.603,53.119 C30.353,53.139 30.101,53.158 29.849,53.177 C28.856,53.284 27.850,53.341 26.829,53.341 C22.025,53.341 17.492,52.163 13.353,49.840 C9.200,47.510 5.899,44.256 3.543,40.167 C1.191,36.087 -0.001,31.579 -0.001,26.767 C-0.001,21.960 1.190,17.433 3.539,13.311 C5.892,9.183 9.155,5.896 13.237,3.543 C17.319,1.192 21.772,-0.001 26.473,-0.001 C31.382,-0.001 35.971,1.177 40.111,3.501 C44.264,5.831 47.574,9.095 49.953,13.204 C52.326,17.308 53.530,21.828 53.530,26.638 C53.530,28.496 53.350,30.309 52.996,32.073 C52.951,32.329 52.885,32.639 52.792,33.000 C52.723,33.290 52.650,33.578 52.571,33.865 L52.549,33.852 C52.073,35.375 51.188,37.530 49.540,40.297 C49.363,40.588 49.264,40.367 49.241,40.204 C48.665,36.134 46.881,33.043 43.738,31.047 C43.686,31.014 43.633,30.982 43.581,30.951 C43.065,30.634 42.515,30.346 41.928,30.086 C41.179,29.756 40.371,29.472 39.502,29.237 C38.969,29.094 37.781,29.155 38.212,28.728 C38.389,28.552 40.963,28.511 43.922,28.699 C43.979,28.702 44.037,28.706 44.095,28.710 C44.150,28.089 44.178,27.453 44.178,26.801 C44.178,21.722 42.497,17.581 39.039,14.143 C35.578,10.702 31.532,9.028 26.668,9.028 C21.687,9.028 17.648,10.703 14.322,14.150 C10.977,17.613 9.352,21.719 9.352,26.702 C9.352,31.675 11.023,35.763 14.462,39.202 C17.900,42.641 21.893,44.313 26.668,44.313 C26.897,44.313 27.123,44.306 27.349,44.299 C27.344,44.241 27.340,44.183 27.335,44.126 C27.061,40.620 27.003,37.707 27.723,38.883 C27.977,39.298 28.231,39.690 28.483,40.068 C29.425,41.476 30.356,42.634 31.284,43.595 C31.331,43.643 31.377,43.690 31.424,43.737 C34.819,47.183 38.160,48.031 41.712,48.902 C41.787,48.921 41.863,48.940 41.938,48.958 C42.520,49.101 43.107,49.247 43.701,49.406 C47.923,50.532 52.495,52.349 57.830,58.962 M46.117,37.762 C45.592,37.608 45.200,37.722 45.007,38.076 C44.714,38.611 44.930,39.670 45.521,40.593 C46.120,41.528 46.628,42.001 47.033,42.001 C47.172,42.001 47.297,41.943 47.394,41.832 C47.619,41.574 47.693,41.033 47.599,40.349 C47.504,39.649 47.074,38.211 46.117,37.762 M40.204,42.126 C39.668,42.126 39.221,42.312 38.946,42.652 C38.242,43.520 38.558,45.049 39.637,45.992 C40.108,46.403 40.786,46.649 41.452,46.649 C42.130,46.649 42.695,46.395 43.044,45.933 C43.672,45.092 43.311,43.900 42.125,42.897 C41.537,42.400 40.855,42.126 40.204,42.126" class="qiwi-1"/></svg>