<svg xmlns="http://www.w3.org/2000/svg" xmlns:xlink="http://www.w3.org/1999/xlink" preserveAspectRatio="xMidYMid" width="60" height="55" viewBox="0 0 60 55">
  <defs>
    <style>
      .terminal-1 {
        fill: #e9eff0;
      }

      .terminal-2 {
        fill: #d6d9d9;
      }

      .terminal-3 {
        fill: #707276;
      }

      .terminal-3, .terminal-6 {
        fill-rule: evenodd;
      }

      .terminal-4 {
        fill: #d3e4e5;
      }

      .terminal-5 {
        fill: #a0cfd9;
      }

      .terminal-6, .terminal-7 {
        fill: #6aaeba;
      }
    </style>
  </defs>
  <g>
    <rect width="60" height="20" rx="2" ry="2" class="terminal-1"/>
    <rect x="6" y="6" width="48" height="8" rx="2" ry="2" class="terminal-2"/>
    <path d="M10.000,8.000 L50.000,8.000 C51.105,8.000 52.000,8.895 52.000,10.000 C52.000,11.105 51.105,12.000 50.000,12.000 L10.000,12.000 C8.895,12.000 8.000,11.105 8.000,10.000 C8.000,8.895 8.895,8.000 10.000,8.000 Z" class="terminal-3"/>
    <g>
      <rect x="10" y="9" width="40" height="46" class="terminal-1"/>
      <rect x="10" y="9" width="40" height="26" class="terminal-4"/>
      <rect x="13" y="9" width="29" height="23" class="terminal-5"/>
      <path d="M19.000,21.000 L21.277,21.000 C21.624,20.405 22.262,20.000 23.000,20.000 L25.000,20.000 C25.000,18.895 25.895,18.000 27.000,18.000 L28.000,18.000 C27.448,18.000 27.000,17.552 27.000,17.000 C27.000,16.448 27.448,16.000 28.000,16.000 L34.000,16.000 L34.000,15.000 C32.895,15.000 32.000,14.105 32.000,13.000 C32.000,11.895 32.895,11.000 34.000,11.000 L34.000,10.000 L23.000,10.000 C22.262,10.000 21.624,9.595 21.277,9.000 L42.000,9.000 L42.000,32.000 L34.000,32.000 L34.000,31.000 C32.895,31.000 32.000,30.105 32.000,29.000 L31.000,29.000 L28.000,29.000 C27.448,29.000 27.000,28.552 27.000,28.000 C27.000,27.448 27.448,27.000 28.000,27.000 L29.000,27.000 L29.000,26.000 L27.000,26.000 C25.895,26.000 25.000,25.105 25.000,24.000 L23.000,24.000 C22.262,24.000 21.624,23.595 21.277,23.000 L19.000,23.000 C18.448,23.000 18.000,22.552 18.000,22.000 C18.000,21.448 18.448,21.000 19.000,21.000 Z" class="terminal-6"/>
      <path d="M46.000,52.000 C44.895,52.000 44.000,51.105 44.000,50.000 L44.000,35.000 C44.000,33.895 44.895,33.000 46.000,33.000 C47.105,33.000 48.000,33.895 48.000,35.000 L48.000,50.000 C48.000,51.105 47.105,52.000 46.000,52.000 ZM46.000,31.000 C44.895,31.000 44.000,30.105 44.000,29.000 L44.000,16.000 C44.000,14.895 44.895,14.000 46.000,14.000 C47.105,14.000 48.000,14.895 48.000,16.000 L48.000,29.000 C48.000,30.105 47.105,31.000 46.000,31.000 Z" class="terminal-6"/>
      <ellipse cx="17" cy="45" rx="4" ry="7" class="terminal-7"/>
      <rect x="23" y="35" width="19" height="20" class="terminal-4"/>
    </g>
  </g>
</svg>
