<svg xmlns="http://www.w3.org/2000/svg" xmlns:xlink="http://www.w3.org/1999/xlink" width="50" height="50" preserveAspectRatio="xMidYMid" viewBox="0 0 50 50"><defs><style>.webmoney-1{fill:#036cb5;fill-rule:evenodd}</style></defs><path d="M47.036,28.944 L44.370,25.971 L47.331,23.295 L49.998,26.267 L47.036,28.944 ZM40.584,17.140 L43.545,14.464 L46.211,17.436 L43.251,20.112 L40.584,17.140 ZM36.800,8.308 L39.761,5.632 L42.428,8.604 L39.466,11.280 L36.800,8.308 ZM31.631,1.839 L25.816,7.044 L22.362,3.261 L11.531,13.060 L18.475,20.741 L15.746,23.150 L22.586,30.842 L19.873,33.245 L29.646,44.164 L35.448,38.804 L40.463,44.548 C39.466,45.327 38.379,46.059 37.182,46.736 C33.554,48.812 29.362,50.001 24.901,50.001 C11.182,50.001 -0.007,38.769 -0.007,25.001 C-0.007,11.230 11.182,-0.001 24.901,-0.001 C28.813,-0.001 32.517,0.913 35.815,2.536 C36.334,2.783 36.851,3.055 37.368,3.354 L35.076,5.414 L31.631,1.839 ZM38.887,33.234 L34.886,28.775 L39.330,24.760 L43.329,29.219 L38.887,33.234 ZM39.530,19.797 L35.089,23.811 L31.088,19.354 L35.530,15.338 L39.530,19.797 ZM35.435,10.832 L30.993,14.847 L26.993,10.387 L31.435,6.373 L35.435,10.832 ZM22.047,7.916 L27.379,13.861 L21.456,19.213 L16.124,13.268 L22.047,7.916 ZM35.832,34.285 L29.908,39.639 L24.574,33.693 L30.497,28.340 L35.832,34.285 ZM26.285,18.066 L31.619,24.013 L25.696,29.365 L20.362,23.420 L26.285,18.066 ZM43.235,33.765 L47.236,38.224 L42.794,42.238 L38.794,37.781 L43.235,33.765 Z" class="webmoney-1"/></svg>