<svg xmlns="http://www.w3.org/2000/svg" xmlns:xlink="http://www.w3.org/1999/xlink" width="22" height="20" preserveAspectRatio="xMidYMid" viewBox="0 0 22 20"><path d="M21.539,19.009 C21.173,19.640 20.551,19.999 19.827,19.999 L1.977,19.999 C1.252,19.999 0.631,19.640 0.265,19.009 C-0.101,18.379 -0.107,17.656 0.248,17.019 L9.171,1.019 C9.532,0.372 10.164,-0.000 10.900,-0.000 C11.636,-0.000 12.267,0.372 12.628,1.019 L21.555,17.019 C21.910,17.655 21.904,18.378 21.539,19.009 ZM10.900,1.999 L1.977,18.000 L19.827,18.000 L10.900,1.999 ZM11.908,7.999 L11.908,11.999 L9.910,11.999 L9.910,7.999 L11.908,7.999 ZM11.908,15.999 L9.910,15.999 L9.910,13.999 L11.908,13.999 L11.908,15.999 Z" class="f-icon alert"/></svg>