<svg xmlns="http://www.w3.org/2000/svg" xmlns:xlink="http://www.w3.org/1999/xlink" width="22" height="22" preserveAspectRatio="xMidYMid" viewBox="0 0 22 22"><path d="M11.050,2.464 L11.757,1.757 C12.327,1.187 12.992,0.754 13.705,0.458 C14.443,0.153 15.224,-0.000 16.000,-0.000 C17.535,-0.000 19.071,0.586 20.242,1.757 C20.813,2.327 21.246,2.992 21.542,3.705 C21.847,4.443 22.000,5.224 22.000,6.000 C22.000,7.535 21.414,9.071 20.242,10.242 L10.242,20.242 C9.672,20.812 9.008,21.246 8.295,21.542 C7.557,21.847 6.776,22.000 6.000,22.000 C4.465,22.000 2.929,21.414 1.757,20.242 C1.187,19.672 0.754,19.008 0.458,18.295 C0.153,17.557 -0.000,16.776 -0.000,16.000 C-0.000,14.465 0.586,12.929 1.757,11.757 L7.757,5.758 C8.492,5.023 9.503,4.604 10.542,4.604 C11.050,4.604 11.562,4.705 12.048,4.905 C12.518,5.100 12.955,5.385 13.328,5.758 C13.700,6.130 13.985,6.567 14.180,7.038 C14.381,7.523 14.482,8.036 14.482,8.543 C14.482,9.050 14.381,9.563 14.180,10.048 L14.180,10.052 C13.987,10.518 13.702,10.954 13.328,11.328 L7.328,17.328 L5.914,15.914 L11.914,9.914 C12.102,9.726 12.243,9.512 12.336,9.286 C12.434,9.054 12.482,8.801 12.482,8.543 C12.482,8.284 12.433,8.029 12.336,7.796 C12.245,7.574 12.103,7.361 11.914,7.172 C11.724,6.982 11.511,6.841 11.290,6.749 C11.056,6.652 10.801,6.604 10.542,6.604 C10.285,6.604 10.031,6.652 9.798,6.747 C9.573,6.842 9.359,6.984 9.171,7.172 L3.171,13.171 C2.391,13.952 2.000,14.976 2.000,16.000 C2.000,16.528 2.101,17.051 2.302,17.537 C2.494,18.001 2.784,18.442 3.171,18.829 C3.952,19.609 4.976,20.000 6.000,20.000 C6.528,20.000 7.051,19.899 7.537,19.698 C8.001,19.505 8.442,19.215 8.829,18.829 L18.829,8.829 C19.609,8.048 20.000,7.024 20.000,6.000 C20.000,5.472 19.899,4.949 19.698,4.463 C19.505,3.999 19.215,3.558 18.829,3.171 C18.048,2.391 17.024,2.000 16.000,2.000 C15.472,2.000 14.948,2.101 14.463,2.302 C13.999,2.494 13.558,2.784 13.171,3.171 L12.464,3.878 L11.050,2.464 Z" class="f-icon attach"/></svg>