<svg xmlns="http://www.w3.org/2000/svg" xmlns:xlink="http://www.w3.org/1999/xlink" width="18" height="20" preserveAspectRatio="xMidYMid" viewBox="0 0 18 20"><path d="M13.000,16.000 C13.000,18.209 11.209,20.000 9.000,20.000 C6.791,20.000 5.000,18.209 5.000,16.000 L-0.000,16.000 L-0.000,14.000 L1.000,14.000 L1.000,8.000 L1.000,8.000 C1.000,3.582 4.582,-0.000 9.000,-0.000 C13.418,-0.000 17.000,3.582 17.000,8.000 L17.000,14.000 L18.000,14.000 L18.000,16.000 L13.000,16.000 ZM9.000,18.000 C10.105,18.000 11.000,17.105 11.000,16.000 L7.000,16.000 C7.000,17.105 7.895,18.000 9.000,18.000 ZM15.000,8.000 C15.000,4.686 12.314,2.000 9.000,2.000 C5.686,2.000 3.000,4.686 3.000,8.000 L3.000,14.000 L15.000,14.000 L15.000,8.000 Z" class="f-icon bell"/></svg>