<svg xmlns="http://www.w3.org/2000/svg" xmlns:xlink="http://www.w3.org/1999/xlink" preserveAspectRatio="xMidYMid" width="18" height="20" viewBox="0 0 18 20">
  <path d="M10.000,18.000 L10.000,20.000 L8.000,20.000 L8.000,18.000 L-0.000,18.000 L-0.000,16.000 L8.000,16.000 L8.000,14.000 L10.000,14.000 L10.000,16.000 L18.000,16.000 L18.000,18.000 L10.000,18.000 ZM4.000,13.000 L2.000,13.000 L2.000,11.000 L-0.000,11.000 L-0.000,9.000 L2.000,9.000 L2.000,7.000 L4.000,7.000 L4.000,9.000 L18.000,9.000 L18.000,11.000 L4.000,11.000 L4.000,13.000 ZM16.000,6.000 L14.000,6.000 L14.000,4.000 L-0.000,4.000 L-0.000,2.000 L14.000,2.000 L14.000,-0.000 L16.000,-0.000 L16.000,2.000 L18.000,2.000 L18.000,4.000 L16.000,4.000 L16.000,6.000 Z" class="f-icon controlling"/>
</svg>
