<svg xmlns="http://www.w3.org/2000/svg" xmlns:xlink="http://www.w3.org/1999/xlink" width="22" height="20" preserveAspectRatio="xMidYMid" viewBox="0 0 22 20"><path d="M21.933,10.437 C21.325,13.148 19.615,15.535 17.485,17.274 C15.741,18.698 13.286,20.000 10.984,20.000 C8.681,20.000 6.226,18.698 4.482,17.274 C2.352,15.535 0.642,13.148 0.034,10.437 C-0.034,10.135 -0.034,9.864 0.034,9.562 C0.642,6.851 2.352,4.464 4.482,2.724 C6.226,1.301 8.681,-0.001 10.984,-0.001 C13.286,-0.001 15.741,1.301 17.485,2.724 C19.615,4.464 21.325,6.851 21.933,9.562 C22.001,9.864 22.001,10.135 21.933,10.437 ZM10.984,1.999 C7.984,1.999 3.016,5.399 1.985,9.999 C3.016,14.600 7.984,17.999 10.984,17.999 C13.983,17.999 18.951,14.600 19.982,9.999 C18.951,5.399 13.983,1.999 10.984,1.999 ZM10.984,14.000 C9.880,14.000 8.879,13.551 8.156,12.828 C7.432,12.104 6.984,11.104 6.984,9.999 C6.984,8.895 7.432,7.895 8.156,7.171 C8.879,6.448 9.880,6.000 10.984,6.000 C12.087,6.000 13.088,6.448 13.811,7.171 C14.535,7.895 14.983,8.895 14.983,9.999 C14.983,11.104 14.535,12.104 13.811,12.828 C13.088,13.551 12.087,14.000 10.984,14.000 ZM12.397,8.585 C12.036,8.224 11.536,8.000 10.984,8.000 C10.431,8.000 9.931,8.224 9.569,8.585 C9.208,8.947 8.984,9.447 8.984,9.999 C8.984,10.552 9.208,11.052 9.569,11.414 C9.931,11.775 10.431,11.999 10.984,11.999 C11.536,11.999 12.036,11.775 12.397,11.414 C12.759,11.052 12.983,10.552 12.983,9.999 C12.983,9.447 12.759,8.947 12.397,8.585 Z" class="f-icon eyes"/></svg>