<svg xmlns="http://www.w3.org/2000/svg" xmlns:xlink="http://www.w3.org/1999/xlink" preserveAspectRatio="xMidYMid" width="20" height="18" viewBox="0 0 20 18">
  <path d="M11.003,8.988 L17.997,1.989 L2.010,1.989 L9.004,8.988 L9.004,15.987 L11.003,13.987 L11.003,8.988 L11.003,8.988 ZM19.410,3.403 L13.001,9.816 L13.001,13.987 L13.001,13.987 C13.001,14.499 12.806,15.011 12.415,15.401 L10.430,17.388 C10.067,17.757 9.563,17.986 9.004,17.986 C7.901,17.986 7.006,17.091 7.006,15.987 L7.006,9.816 L0.610,3.416 C0.241,3.053 0.012,2.548 0.012,1.989 C0.012,0.885 0.906,-0.010 2.010,-0.010 L17.997,-0.010 L17.997,-0.010 C18.509,-0.010 19.020,0.185 19.410,0.576 C20.190,1.356 20.190,2.622 19.410,3.403 Z" class="f-icon filter"/>
</svg>
