<svg xmlns="http://www.w3.org/2000/svg" xmlns:xlink="http://www.w3.org/1999/xlink" width="80" height="80" preserveAspectRatio="xMidYMid" viewBox="0 0 80 80"><defs><style>.good{fill:#42cc05;fill-rule:evenodd}</style></defs><path d="M40.000,80.000 C17.909,80.000 -0.000,62.091 -0.000,40.000 C-0.000,17.909 17.909,-0.000 40.000,-0.000 C62.091,-0.000 80.000,17.909 80.000,40.000 C80.000,62.091 62.091,80.000 40.000,80.000 ZM40.000,2.000 C19.013,2.000 2.000,19.013 2.000,40.000 C2.000,60.987 19.013,78.000 40.000,78.000 C60.987,78.000 78.000,60.987 78.000,40.000 C78.000,19.013 60.987,2.000 40.000,2.000 ZM36.997,50.543 L35.543,51.997 L35.500,51.954 L35.457,51.997 L34.003,50.543 L34.046,50.500 L23.003,39.457 L24.457,38.003 L35.500,49.046 L56.543,28.003 L57.997,29.457 L36.954,50.500 L36.997,50.543 Z" class="good"/></svg>