<svg xmlns="http://www.w3.org/2000/svg" xmlns:xlink="http://www.w3.org/1999/xlink" preserveAspectRatio="xMidYMid" width="197.531" height="29.5" viewBox="0 0 197.531 29.5">
  <defs>
    <style>
      .googleanalytics-1 {
        fill: #63666a;
      }

      .googleanalytics-1, .googleanalytics-2, .googleanalytics-3, .googleanalytics-4, .googleanalytics-5, .googleanalytics-6 {
        fill-rule: evenodd;
      }

      .googleanalytics-2 {
        fill: #ea4335;
      }

      .googleanalytics-3 {
        fill: #34a853;
      }

      .googleanalytics-4 {
        fill: #4285f4;
      }

      .googleanalytics-5 {
        fill: #fbbd09;
      }

      .googleanalytics-6 {
        fill: #ea453a;
      }
    </style>
  </defs>
  <g>
    <path d="M192.830,9.579 C191.661,9.579 190.734,9.772 190.048,10.159 C189.362,10.546 189.020,11.082 189.020,11.767 C189.020,12.515 189.285,13.112 189.817,13.560 C190.349,14.009 191.388,14.510 192.935,15.063 C194.227,15.529 195.168,15.949 195.757,16.322 C196.345,16.696 196.787,17.120 197.082,17.595 C197.376,18.069 197.523,18.627 197.523,19.269 C197.523,20.552 197.035,21.539 196.060,22.229 C195.084,22.919 193.700,23.263 191.907,23.263 C189.991,23.263 188.470,22.969 187.345,22.380 L187.345,20.970 C188.787,21.690 190.307,22.051 191.907,22.051 C193.322,22.051 194.396,21.816 195.130,21.345 C195.864,20.875 196.231,20.249 196.231,19.467 C196.231,18.746 195.939,18.140 195.355,17.647 C194.770,17.155 193.810,16.672 192.474,16.197 C191.041,15.679 190.035,15.233 189.455,14.859 C188.875,14.485 188.437,14.064 188.143,13.593 C187.848,13.123 187.701,12.550 187.701,11.873 C187.701,10.801 188.152,9.953 189.053,9.328 C189.954,8.705 191.213,8.393 192.830,8.393 C194.377,8.393 195.844,8.682 197.233,9.262 L196.745,10.449 C195.339,9.869 194.034,9.579 192.830,9.579 ZM181.703,9.579 C179.945,9.579 178.613,10.122 177.708,11.207 C176.803,12.293 176.350,13.855 176.350,15.894 C176.350,17.828 176.803,19.342 177.708,20.436 C178.613,21.530 179.879,22.077 181.505,22.077 C182.806,22.077 184.014,21.844 185.131,21.378 L185.131,22.591 C184.216,23.040 183.017,23.263 181.531,23.263 C179.484,23.263 177.880,22.617 176.720,21.326 C175.559,20.033 174.979,18.232 174.979,15.920 C174.979,13.547 175.581,11.699 176.785,10.377 C177.989,9.054 179.637,8.393 181.729,8.393 C182.969,8.393 184.155,8.608 185.289,9.039 L184.933,10.199 C183.694,9.785 182.617,9.579 181.703,9.579 ZM170.352,5.967 C169.798,5.967 169.521,5.540 169.521,4.688 C169.521,3.844 169.798,3.422 170.352,3.422 C170.624,3.422 170.837,3.532 170.991,3.752 C171.145,3.972 171.222,4.284 171.222,4.688 C171.222,5.083 171.145,5.396 170.991,5.624 C170.837,5.853 170.624,5.967 170.352,5.967 ZM164.419,23.263 C163.154,23.263 162.220,22.925 161.618,22.248 C161.016,21.572 160.715,20.508 160.715,19.058 L160.715,9.803 L158.592,9.803 L158.592,9.039 L160.715,8.445 L161.374,5.202 L162.046,5.202 L162.046,8.669 L166.252,8.669 L166.252,9.803 L162.046,9.803 L162.046,18.873 C162.046,19.972 162.239,20.785 162.626,21.312 C163.013,21.840 163.619,22.103 164.446,22.103 C165.272,22.103 165.992,22.033 166.608,21.892 L166.608,22.947 C165.975,23.158 165.245,23.263 164.419,23.263 ZM150.537,28.062 C150.185,28.537 149.774,28.893 149.304,29.130 C148.834,29.368 148.265,29.486 147.597,29.486 C147.096,29.486 146.538,29.394 145.923,29.209 L145.923,28.076 C146.432,28.216 146.982,28.286 147.571,28.286 C148.019,28.286 148.414,28.181 148.757,27.970 C149.100,27.759 149.410,27.432 149.687,26.988 C149.963,26.544 150.284,25.841 150.649,24.879 C151.014,23.916 151.249,23.290 151.354,23.000 L145.870,8.669 L147.215,8.669 L150.247,16.711 C151.170,19.181 151.754,20.847 152.000,21.708 L152.079,21.708 C152.448,20.574 153.050,18.882 153.886,16.632 L156.918,8.669 L158.262,8.669 L151.842,25.320 C151.323,26.674 150.888,27.588 150.537,28.062 ZM142.165,2.486 L143.470,2.486 L143.470,23.000 L142.165,23.000 L142.165,2.486 ZM136.233,20.732 L136.127,20.732 C135.406,21.655 134.666,22.308 133.906,22.690 C133.145,23.072 132.247,23.263 131.210,23.263 C129.803,23.263 128.709,22.903 127.927,22.183 C127.145,21.462 126.754,20.464 126.754,19.190 C126.754,17.792 127.336,16.707 128.500,15.933 C129.665,15.160 131.350,14.751 133.556,14.707 L136.285,14.628 L136.285,13.679 C136.285,12.317 136.009,11.289 135.455,10.594 C134.901,9.900 134.009,9.553 132.779,9.553 C131.451,9.553 130.076,9.922 128.652,10.660 L128.164,9.526 C129.738,8.788 131.293,8.419 132.831,8.419 C134.405,8.419 135.580,8.828 136.358,9.645 C137.136,10.462 137.525,11.737 137.525,13.468 L137.525,23.000 L136.562,23.000 L136.233,20.732 ZM136.233,15.709 L133.728,15.815 C131.715,15.912 130.280,16.226 129.423,16.757 C128.566,17.289 128.138,18.118 128.138,19.242 C128.138,20.139 128.413,20.836 128.962,21.332 C129.511,21.829 130.287,22.077 131.289,22.077 C132.818,22.077 134.024,21.640 134.908,20.765 C135.791,19.891 136.233,18.676 136.233,17.120 L136.233,15.709 ZM121.928,13.705 C121.928,12.264 121.625,11.216 121.019,10.561 C120.412,9.906 119.472,9.579 118.197,9.579 C116.484,9.579 115.229,10.012 114.434,10.878 C113.638,11.743 113.240,13.147 113.240,15.090 L113.240,23.000 L111.935,23.000 L111.935,8.669 L113.043,8.669 L113.293,10.634 L113.372,10.634 C114.304,9.140 115.961,8.393 118.342,8.393 C121.594,8.393 123.220,10.137 123.220,13.626 L123.220,23.000 L121.928,23.000 L121.928,13.705 ZM105.344,16.197 L97.512,16.197 L94.823,23.000 L93.333,23.000 L101.085,3.646 L101.942,3.646 L109.536,23.000 L108.020,23.000 L105.344,16.197 ZM102.272,8.037 C102.052,7.492 101.788,6.736 101.481,5.769 C101.243,6.613 100.984,7.377 100.703,8.063 L98.000,14.984 L104.895,14.984 L102.272,8.037 ZM171.011,23.000 L169.706,23.000 L169.706,8.669 L171.011,8.669 L171.011,23.000 Z" class="googleanalytics-1"/>
    <path d="M81.998,19.242 C80.422,19.242 79.306,18.531 78.578,17.121 L88.000,13.255 L87.685,12.460 C87.103,10.894 85.308,8.003 81.658,8.003 C78.033,8.003 75.013,10.834 75.013,15.001 C75.013,18.928 77.996,22.000 81.998,22.000 C85.223,22.000 87.091,20.036 87.867,18.904 L85.466,17.314 C84.666,18.471 83.574,19.242 81.998,19.242 L81.998,19.242 ZM81.780,10.629 C83.029,10.629 84.096,11.267 84.447,12.171 L78.081,14.785 C78.081,11.845 80.179,10.629 81.780,10.629 Z" class="googleanalytics-2"/>
    <path d="M70.002,0.006 L72.993,0.006 L72.993,22.000 L70.002,22.000 L70.002,0.006 Z" class="googleanalytics-3"/>
    <path d="M65.143,9.550 L65.036,9.550 C64.363,8.741 63.064,8.003 61.422,8.003 C57.997,8.003 55.009,11.014 55.009,14.917 C55.009,18.797 57.997,21.832 61.422,21.832 C63.064,21.832 64.363,21.094 65.036,20.261 L65.143,20.261 L65.143,21.225 C65.143,23.867 63.737,25.283 61.481,25.283 C59.638,25.283 58.493,23.950 58.020,22.820 L55.398,23.915 C56.154,25.747 58.150,27.997 61.481,27.997 C65.013,27.997 68.001,25.902 68.001,20.797 L68.001,8.360 L65.143,8.360 L65.143,9.550 ZM61.682,19.107 C59.603,19.107 58.020,17.321 58.020,14.917 C58.020,12.478 59.603,10.728 61.682,10.728 C63.737,10.728 65.343,12.513 65.343,14.941 C65.355,17.357 63.737,19.107 61.682,19.107 Z" class="googleanalytics-4"/>
    <path d="M46.004,8.003 C42.148,8.003 39.001,10.942 39.001,15.001 C39.001,19.025 42.148,22.000 46.004,22.000 C49.859,22.000 53.006,19.037 53.006,15.001 C53.006,10.942 49.859,8.003 46.004,8.003 ZM46.004,19.242 C43.890,19.242 42.064,17.495 42.064,15.001 C42.064,12.484 43.890,10.761 46.004,10.761 C48.118,10.761 49.943,12.484 49.943,15.001 C49.943,17.495 48.118,19.242 46.004,19.242 Z" class="googleanalytics-5"/>
    <path d="M30.010,8.003 C26.154,8.003 23.007,10.942 23.007,15.001 C23.007,19.025 26.154,22.000 30.010,22.000 C33.866,22.000 37.013,19.037 37.013,15.001 C37.013,10.942 33.866,8.003 30.010,8.003 ZM30.010,19.242 C27.896,19.242 26.070,17.495 26.070,15.001 C26.070,12.484 27.896,10.761 30.010,10.761 C32.124,10.761 33.950,12.484 33.950,15.001 C33.950,17.495 32.124,19.242 30.010,19.242 Z" class="googleanalytics-6"/>
    <path d="M10.926,10.013 L10.926,13.022 L17.962,13.022 C17.747,14.710 17.197,15.946 16.359,16.814 C15.330,17.866 13.726,19.016 10.926,19.016 C6.594,19.016 3.207,15.444 3.207,11.016 C3.207,6.588 6.594,3.016 10.926,3.016 C13.259,3.016 14.971,3.958 16.227,5.169 L18.297,3.053 C16.550,1.316 14.205,-0.005 10.926,-0.005 C4.990,-0.005 -0.000,4.936 -0.000,11.004 C-0.000,17.071 4.990,22.013 10.926,22.013 C14.133,22.013 16.550,20.936 18.441,18.930 C20.380,16.948 20.990,14.147 20.990,11.897 C20.990,11.199 20.942,10.551 20.834,10.013 L10.926,10.013 Z" class="googleanalytics-4"/>
  </g>
</svg>
