<svg xmlns="http://www.w3.org/2000/svg" xmlns:xlink="http://www.w3.org/1999/xlink" width="13" height="13" preserveAspectRatio="xMidYMid" viewBox="0 0 13 13"><defs><style>.info-small{fill:#c3c8cc;fill-rule:evenodd}</style></defs><path d="M6.500,13.000 C2.910,13.000 -0.000,10.090 -0.000,6.500 C-0.000,2.910 2.910,-0.000 6.500,-0.000 C10.090,-0.000 13.000,2.910 13.000,6.500 C13.000,10.090 10.090,13.000 6.500,13.000 ZM6.500,1.000 C3.462,1.000 1.000,3.462 1.000,6.500 C1.000,9.538 3.462,12.000 6.500,12.000 C9.538,12.000 12.000,9.538 12.000,6.500 C12.000,3.462 9.538,1.000 6.500,1.000 ZM6.000,6.000 L7.000,6.000 L7.000,9.000 L6.000,9.000 L6.000,6.000 ZM6.000,4.000 L7.000,4.000 L7.000,5.000 L6.000,5.000 L6.000,4.000 Z" class="f-icon info-small"/></svg>