<svg xmlns="http://www.w3.org/2000/svg" xmlns:xlink="http://www.w3.org/1999/xlink" preserveAspectRatio="xMidYMid" width="22" height="22" viewBox="0 0 22 22">
  <path d="M11.000,22.000 C4.925,22.000 -0.000,17.075 -0.000,11.000 C-0.000,4.925 4.925,-0.000 11.000,-0.000 C17.075,-0.000 22.000,4.925 22.000,11.000 C22.000,17.075 17.075,22.000 11.000,22.000 ZM15.882,7.532 C16.580,8.513 17.000,9.705 17.000,11.000 C17.000,12.295 16.580,13.487 15.882,14.468 L18.028,16.614 C19.259,15.074 20.000,13.125 20.000,11.000 C20.000,8.875 19.259,6.926 18.028,5.386 L15.882,7.532 ZM7.000,11.000 C7.000,13.209 8.791,15.000 11.000,15.000 C13.209,15.000 15.000,13.209 15.000,11.000 C15.000,8.791 13.209,7.000 11.000,7.000 C8.791,7.000 7.000,8.791 7.000,11.000 ZM16.614,18.028 L14.468,15.882 C13.487,16.580 12.295,17.000 11.000,17.000 C9.705,17.000 8.513,16.580 7.532,15.882 L5.386,18.028 C6.926,19.259 8.875,20.000 11.000,20.000 C13.125,20.000 15.074,19.259 16.614,18.028 ZM3.972,16.614 L6.118,14.468 C5.420,13.487 5.000,12.295 5.000,11.000 C5.000,9.705 5.420,8.513 6.118,7.532 L3.972,5.386 C2.741,6.926 2.000,8.875 2.000,11.000 C2.000,13.125 2.741,15.074 3.972,16.614 ZM5.386,3.972 L7.532,6.118 C8.513,5.420 9.705,5.000 11.000,5.000 C12.295,5.000 13.487,5.420 14.468,6.118 L16.614,3.972 C15.074,2.741 13.125,2.000 11.000,2.000 C8.875,2.000 6.926,2.741 5.386,3.972 Z" class="f-icon lifevest"/>
</svg>
