<svg xmlns="http://www.w3.org/2000/svg" xmlns:xlink="http://www.w3.org/1999/xlink" preserveAspectRatio="xMidYMid" width="41" height="16" viewBox="0 0 41 16">
  <defs>
    <style>
      .logo-yandex-1 {
        fill: #000;
      }

      .logo-yandex-1, .logo-yandex-2 {
        fill-rule: evenodd;
      }

      .logo-yandex-2 {
        fill: red;
      }
    </style>
  </defs>
  <g>
    <path d="M13.336,4.146 L13.336,14.053 L11.817,14.053 L11.817,9.611 L9.530,9.611 L9.530,14.053 L7.992,14.053 L7.992,4.146 L9.530,4.146 L9.530,8.353 L11.817,8.353 L11.817,4.146 L13.336,4.146 ZM21.242,16.000 L19.862,16.000 L19.862,14.053 L15.603,14.053 L15.603,16.000 L14.223,16.000 L14.223,12.795 L14.834,12.795 C15.741,10.692 15.840,7.626 15.840,4.992 L15.840,4.146 L20.454,4.146 L20.454,12.795 L21.242,12.795 L21.242,16.000 ZM18.935,5.385 L17.220,5.385 L17.220,5.562 C17.220,7.645 17.121,10.692 16.293,12.795 L18.935,12.795 L18.935,5.385 ZM25.482,14.191 C23.431,14.191 22.169,12.560 22.169,9.513 C22.169,6.328 23.057,4.009 25.166,4.009 C26.823,4.009 27.907,5.247 27.907,8.609 L27.907,9.454 L23.766,9.454 C23.766,11.695 24.397,12.874 25.620,12.874 C26.487,12.874 27.178,12.481 27.572,12.206 L27.927,13.385 C27.296,13.877 26.468,14.191 25.482,14.191 ZM23.786,8.196 L26.330,8.196 C26.330,6.505 26.054,5.267 25.166,5.267 C24.220,5.267 23.885,6.427 23.786,8.196 ZM31.023,9.120 L31.023,14.053 L29.485,14.053 L29.485,4.146 L31.023,4.146 L31.023,8.726 L33.408,4.146 L34.966,4.146 L32.501,8.805 L35.321,14.053 L33.645,14.053 L31.023,9.120 ZM35.518,9.100 C35.518,5.994 36.721,4.009 39.048,4.009 C39.935,4.009 40.448,4.245 40.882,4.520 L40.665,5.974 C40.251,5.621 39.659,5.286 39.028,5.286 C37.924,5.286 37.135,6.525 37.135,9.021 C37.135,11.498 37.727,12.913 38.969,12.913 C39.718,12.913 40.290,12.619 40.645,12.304 L41.000,13.444 C40.467,13.896 39.837,14.191 38.929,14.191 C36.800,14.191 35.518,12.481 35.518,9.100 Z" class="logo-yandex-1"/>
    <path d="M4.187,8.629 L1.766,13.991 L0.000,13.991 L2.659,8.257 C1.409,7.631 0.576,6.496 0.576,4.402 C0.576,1.466 2.461,-0.001 4.703,-0.001 L6.985,-0.001 L6.985,13.991 L5.457,13.991 L5.457,8.629 L4.187,8.629 ZM5.457,1.271 L4.644,1.271 C3.413,1.271 2.223,2.073 2.223,4.402 C2.223,6.652 3.314,7.376 4.644,7.376 L5.457,7.376 L5.457,1.271 Z" class="logo-yandex-2"/>
  </g>
</svg>
