<svg xmlns="http://www.w3.org/2000/svg" xmlns:xlink="http://www.w3.org/1999/xlink" width="49" height="15" preserveAspectRatio="xMidYMid" viewBox="0 0 49 15"><defs><style>.logo-google-1{fill:#ea4335}.logo-google-1,.logo-google-2,.logo-google-3,.logo-google-4{fill-rule:evenodd}.logo-google-2{fill:#34a853}.logo-google-3{fill:#4285f4}.logo-google-4{fill:#fbbc05}</style></defs><g><path d="M45.680,10.121 C44.808,10.121 44.191,9.736 43.789,8.973 L48.999,6.879 L48.824,6.448 C48.502,5.600 47.510,4.035 45.492,4.035 C43.488,4.035 41.818,5.568 41.818,7.825 C41.818,9.951 43.467,11.615 45.680,11.615 C47.463,11.615 48.496,10.551 48.925,9.938 L47.597,9.077 C47.155,9.703 46.551,10.121 45.680,10.121 L45.680,10.121 ZM45.559,5.457 C46.250,5.457 46.840,5.803 47.034,6.292 L43.514,7.707 C43.514,6.116 44.674,5.457 45.559,5.457 Z" class="logo-google-1"/><path d="M38.801,0.154 L40.484,0.154 L40.484,11.615 L38.801,11.615 L38.801,0.154 Z" class="logo-google-2"/><path d="M35.838,4.883 L35.777,4.883 C35.395,4.439 34.658,4.035 33.726,4.035 C31.782,4.035 30.085,5.685 30.085,7.825 C30.085,9.951 31.782,11.615 33.726,11.615 C34.658,11.615 35.395,11.210 35.777,10.754 L35.838,10.754 L35.838,11.282 C35.838,12.730 35.040,13.506 33.759,13.506 C32.714,13.506 32.063,12.776 31.795,12.156 L30.307,12.756 C30.736,13.761 31.869,14.993 33.759,14.993 C35.764,14.993 37.460,13.845 37.460,11.047 L37.460,4.231 L35.838,4.231 L35.838,4.883 ZM33.873,10.121 C32.693,10.121 31.795,9.142 31.795,7.825 C31.795,6.488 32.693,5.529 33.873,5.529 C35.040,5.529 35.952,6.507 35.952,7.838 C35.958,9.162 35.040,10.121 33.873,10.121 Z" class="logo-google-3"/><path d="M25.392,4.035 C23.240,4.035 21.484,5.627 21.484,7.825 C21.484,10.003 23.240,11.615 25.392,11.615 C27.545,11.615 29.301,10.010 29.301,7.825 C29.301,5.627 27.545,4.035 25.392,4.035 ZM25.392,10.121 C24.212,10.121 23.193,9.175 23.193,7.825 C23.193,6.461 24.212,5.529 25.392,5.529 C26.572,5.529 27.591,6.461 27.591,7.825 C27.591,9.175 26.572,10.121 25.392,10.121 Z" class="logo-google-4"/><path d="M16.677,4.035 C14.525,4.035 12.768,5.627 12.768,7.825 C12.768,10.003 14.525,11.615 16.677,11.615 C18.829,11.615 20.585,10.010 20.585,7.825 C20.585,5.627 18.829,4.035 16.677,4.035 ZM16.677,10.121 C15.497,10.121 14.478,9.175 14.478,7.825 C14.478,6.461 15.497,5.529 16.677,5.529 C17.857,5.529 18.876,6.461 18.876,7.825 C18.876,9.175 17.857,10.121 16.677,10.121 Z" class="logo-google-1"/><path d="M6.111,5.340 L6.111,6.944 L10.053,6.944 C9.932,7.844 9.624,8.503 9.154,8.966 C8.578,9.527 7.679,10.140 6.111,10.140 C3.684,10.140 1.786,8.236 1.786,5.874 C1.786,3.513 3.684,1.608 6.111,1.608 C7.418,1.608 8.377,2.111 9.081,2.756 L10.240,1.628 C9.262,0.702 7.948,-0.003 6.111,-0.003 C2.785,-0.003 -0.011,2.632 -0.011,5.868 C-0.011,9.103 2.785,11.738 6.111,11.738 C7.907,11.738 9.262,11.164 10.321,10.095 C11.407,9.038 11.749,7.544 11.749,6.344 C11.749,5.972 11.722,5.627 11.662,5.340 L6.111,5.340 Z" class="logo-google-3"/></g></svg>