<svg xmlns="http://www.w3.org/2000/svg" xmlns:xlink="http://www.w3.org/1999/xlink" preserveAspectRatio="xMidYMid" width="22" height="22" viewBox="0 0 21.969 21.969">
  <path d="M11.969,20.000 C9.588,20.000 7.403,19.164 5.686,17.775 L1.477,21.984 L-0.015,20.492 L4.194,16.283 C2.805,14.565 1.969,12.381 1.969,10.000 C1.969,4.477 6.446,-0.000 11.969,-0.000 C17.492,-0.000 21.969,4.477 21.969,10.000 C21.969,15.523 17.492,20.000 11.969,20.000 ZM11.969,2.000 C7.551,2.000 3.969,5.582 3.969,10.000 C3.969,14.418 7.551,18.000 11.969,18.000 C16.387,18.000 19.969,14.418 19.969,10.000 C19.969,5.582 16.387,2.000 11.969,2.000 Z" class="f-icon loupe"/>
</svg>
