<svg xmlns="http://www.w3.org/2000/svg" xmlns:xlink="http://www.w3.org/1999/xlink" preserveAspectRatio="xMidYMid" width="22" height="22" viewBox="0 0 22 22">
  <path d="M12.000,-0.000 C17.523,-0.000 22.000,4.477 22.000,10.000 C22.000,12.401 21.153,14.604 19.742,16.328 L22.000,18.586 L20.586,20.000 C14.390,13.805 8.195,7.609 2.000,1.414 L3.414,-0.000 L5.671,2.258 C7.395,0.847 9.599,-0.000 12.000,-0.000 L12.000,-0.000 ZM18.319,14.905 C19.372,13.550 20.000,11.849 20.000,10.000 C20.000,5.582 16.418,2.000 12.000,2.000 C10.151,2.000 8.449,2.627 7.094,3.680 L18.319,14.905 L18.319,14.905 ZM16.625,18.868 L15.123,17.366 C14.164,17.774 13.108,17.999 12.000,17.999 C7.581,17.999 4.000,14.418 4.000,10.000 C4.000,8.891 4.226,7.835 4.633,6.876 L3.132,5.375 C2.409,6.758 2.000,8.331 2.000,10.000 C2.000,12.401 2.846,14.604 4.257,16.328 L-0.000,20.586 L1.414,22.000 L5.672,17.742 C7.396,19.153 9.599,20.000 12.000,20.000 C13.669,20.000 15.242,19.591 16.625,18.868 Z" class="f-icon loupe-strikeout"/>
</svg>
