<svg xmlns="http://www.w3.org/2000/svg" xmlns:xlink="http://www.w3.org/1999/xlink" width="9" height="9" preserveAspectRatio="xMidYMid" viewBox="0 0 9 9"><defs><style>.loupe-mini{fill:#c3c8cc;fill-rule:evenodd}</style></defs><path d="M4.903,8.193 C3.928,8.193 3.033,7.851 2.329,7.281 L0.605,9.006 L-0.006,8.395 L1.718,6.670 C1.149,5.967 0.806,5.072 0.806,4.096 C0.806,1.834 2.641,-0.000 4.903,-0.000 C7.166,-0.000 9.000,1.834 9.000,4.096 C9.000,6.359 7.166,8.193 4.903,8.193 ZM4.903,0.819 C3.093,0.819 1.626,2.286 1.626,4.096 C1.626,5.906 3.093,7.374 4.903,7.374 C6.713,7.374 8.181,5.906 8.181,4.096 C8.181,2.286 6.713,0.819 4.903,0.819 Z" class="f-icon loupe-mini"/></svg>