<svg xmlns="http://www.w3.org/2000/svg" xmlns:xlink="http://www.w3.org/1999/xlink" preserveAspectRatio="xMidYMid" width="20" height="16" viewBox="0 0 20 16">
  <path d="M2.000,-0.001 L18.000,-0.001 C19.100,-0.001 20.000,0.900 20.000,2.000 L20.000,13.999 C20.000,15.099 19.100,15.999 18.000,15.999 L2.000,15.999 C0.900,15.999 -0.000,15.099 -0.000,13.999 L-0.000,2.000 C-0.000,0.900 0.900,-0.001 2.000,-0.001 L2.000,-0.001 ZM3.414,2.000 L10.000,8.584 L16.586,2.000 L3.414,2.000 L3.414,2.000 ZM18.000,3.414 L10.000,11.412 L2.000,3.414 L2.000,13.999 L18.000,13.999 L18.000,3.414 Z" class="f-icon message"/>
</svg>
