<svg xmlns="http://www.w3.org/2000/svg" xmlns:xlink="http://www.w3.org/1999/xlink" width="180" height="32" preserveAspectRatio="xMidYMid" viewBox="0 0 180 32"><defs><style>.metrika-1,.metrika-2{fill:#000;fill-rule:evenodd}.metrika-2{fill:red}</style></defs><g><path d="M27.408,8.257 L27.408,26.191 L24.542,26.191 L24.542,18.149 L20.226,18.149 L20.226,26.191 L17.323,26.191 L17.323,8.257 L20.226,8.257 L20.226,15.871 L24.542,15.871 L24.542,8.257 L27.408,8.257 ZM42.329,29.714 L39.725,29.714 L39.725,26.191 L31.687,26.191 L31.687,29.714 L29.082,29.714 L29.082,23.913 L30.236,23.913 C31.947,20.106 32.133,14.555 32.133,9.786 L32.133,8.257 L40.841,8.257 L40.841,23.913 L42.329,23.913 L42.329,29.714 ZM37.976,10.498 L34.738,10.498 L34.738,10.819 C34.738,14.590 34.552,20.106 32.989,23.913 L37.976,23.913 L37.976,10.498 ZM50.330,26.440 C46.460,26.440 44.078,23.486 44.078,17.971 C44.078,12.206 45.753,8.007 49.735,8.007 C52.860,8.007 54.907,10.249 54.907,16.334 L54.907,17.864 L47.092,17.864 C47.092,21.921 48.283,24.056 50.590,24.056 C52.228,24.056 53.530,23.344 54.274,22.846 L54.944,24.981 C53.753,25.871 52.190,26.440 50.330,26.440 ZM47.130,15.587 L51.930,15.587 C51.930,12.527 51.409,10.285 49.735,10.285 C47.948,10.285 47.316,12.384 47.130,15.587 ZM60.786,17.259 L60.786,26.191 L57.884,26.191 L57.884,8.257 L60.786,8.257 L60.786,16.548 L65.289,8.257 L68.228,8.257 L63.577,16.690 L68.898,26.191 L65.735,26.191 L60.786,17.259 ZM69.270,17.224 C69.270,11.601 71.540,8.007 75.931,8.007 C77.606,8.007 78.573,8.435 79.392,8.933 L78.982,11.566 C78.201,10.925 77.085,10.320 75.894,10.320 C73.810,10.320 72.322,12.562 72.322,17.081 C72.322,21.565 73.438,24.127 75.782,24.127 C77.196,24.127 78.276,23.593 78.945,23.024 L79.615,25.088 C78.610,25.906 77.420,26.440 75.708,26.440 C71.689,26.440 69.270,23.344 69.270,17.224 Z" class="metrika-1"/><path d="M90.187,7.729 C89.820,6.371 89.527,5.195 89.307,3.983 L89.197,3.983 C89.270,5.231 89.307,6.554 89.307,7.877 L89.307,26.281 L87.692,26.281 L87.692,0.015 L89.820,0.015 L94.261,16.803 C94.444,17.501 94.701,18.861 94.811,19.852 L94.921,19.852 C95.068,18.861 95.362,17.464 95.545,16.803 L100.023,0.015 L102.079,0.015 L102.079,26.281 L100.316,26.281 L100.316,7.877 C100.316,6.627 100.390,5.306 100.463,3.983 L100.316,3.983 C100.047,5.201 99.754,6.413 99.436,7.619 L95.509,22.241 L94.077,22.241 L90.187,7.729 ZM106.692,17.315 L115.062,17.315 C115.649,10.738 113.594,7.395 110.400,7.395 C107.280,7.395 105.004,10.959 105.004,17.022 C105.004,23.084 106.802,26.649 110.730,26.649 C113.667,26.649 115.061,24.554 115.061,24.554 L114.511,23.157 C114.511,23.157 113.226,25.142 110.767,25.142 C108.088,25.142 106.766,22.387 106.692,17.315 ZM110.400,8.827 C112.273,8.827 113.741,11.032 113.447,15.956 L106.729,15.956 C106.876,11.326 108.455,8.827 110.400,8.827 ZM127.156,9.195 L127.156,7.762 L116.873,7.762 L116.873,9.195 L121.169,9.195 L121.169,26.281 L122.896,26.281 L122.896,9.196 L127.156,9.196 L127.156,9.195 ZM152.529,26.281 L154.180,26.281 L154.180,7.762 L152.675,7.762 L146.657,20.770 C146.290,21.577 145.923,22.387 145.666,23.232 L145.556,23.232 C145.629,22.423 145.703,21.615 145.703,20.624 L145.703,7.761 L144.086,7.761 L144.086,26.281 L145.555,26.281 L151.575,13.237 C151.967,12.468 152.299,11.669 152.566,10.849 L152.676,10.849 C152.585,11.691 152.536,12.537 152.529,13.384 L152.529,26.281 ZM160.009,16.691 L166.432,26.281 L168.342,26.281 L161.807,16.360 L167.900,7.762 L166.212,7.762 L160.009,16.470 L160.009,7.762 L158.283,7.762 L158.283,26.281 L160.009,26.281 L160.009,16.691 ZM137.833,23.112 C138.543,21.704 138.898,19.529 138.898,16.589 C138.898,14.139 138.593,12.240 137.980,10.893 C137.369,9.545 136.523,8.871 135.446,8.871 C135.031,8.871 134.633,8.975 134.254,9.184 C133.874,9.393 133.520,9.668 133.188,10.011 C132.858,10.354 132.558,10.752 132.290,11.205 C132.020,11.657 131.787,12.131 131.591,12.620 L131.591,22.984 C131.959,23.744 132.411,24.307 132.950,24.675 C133.488,25.042 134.174,25.225 135.006,25.225 C136.182,25.225 137.123,24.522 137.833,23.112 ZM132.970,26.126 C132.429,25.849 131.957,25.453 131.591,24.968 L131.591,31.988 L129.866,31.988 L129.866,7.732 L131.371,7.732 L131.518,10.782 C131.932,9.905 132.490,9.103 133.171,8.412 C133.855,7.713 134.712,7.364 135.741,7.364 C136.499,7.364 137.185,7.584 137.797,8.025 C138.409,8.467 138.923,9.086 139.338,9.882 C139.755,10.678 140.073,11.633 140.294,12.748 C140.514,13.863 140.624,15.095 140.624,16.443 C140.624,19.848 140.098,22.389 139.045,24.069 C137.992,25.747 136.609,26.585 134.896,26.585 C134.226,26.595 133.563,26.437 132.968,26.126 L132.970,26.126 ZM178.413,26.281 L179.991,26.281 C179.771,25.583 179.587,24.150 179.587,22.864 L179.587,12.759 C179.587,9.085 177.862,7.395 174.816,7.395 C172.722,7.395 171.181,8.314 170.447,9.269 L170.924,10.922 C171.804,9.635 173.236,8.901 174.815,8.901 C176.834,8.901 177.899,10.114 177.899,12.943 L177.899,15.258 L175.880,15.258 C171.878,15.258 169.713,17.315 169.713,21.284 C169.713,24.664 171.438,26.649 173.934,26.649 C175.769,26.649 177.092,25.546 177.972,23.782 C178.083,25.106 178.266,25.804 178.412,26.281 L178.413,26.281 ZM174.302,25.252 C172.539,25.252 171.401,23.745 171.401,21.137 C171.401,17.903 172.869,16.507 175.917,16.507 L177.899,16.507 L177.899,21.615 C177.239,23.599 176.026,25.252 174.301,25.252 L174.302,25.252 Z" class="metrika-1"/><path d="M8.290,16.223 L3.497,26.282 L0.000,26.282 L5.265,15.526 C2.790,14.351 1.140,12.222 1.140,8.294 C1.140,2.787 4.872,0.034 9.312,0.034 L13.830,0.034 L13.830,26.282 L10.805,26.282 L10.805,16.223 L8.290,16.223 ZM10.805,2.420 L9.194,2.420 C6.758,2.420 4.401,3.925 4.401,8.294 C4.401,12.515 6.562,13.874 9.194,13.874 L10.805,13.874 L10.805,2.420 Z" class="metrika-2"/></g></svg>