<svg xmlns="http://www.w3.org/2000/svg" xmlns:xlink="http://www.w3.org/1999/xlink" preserveAspectRatio="xMidYMid" width="20" height="20" viewBox="0 0 19.843 19.875">
  <path d="M1.394,19.861 L6.933,14.322 L9.144,18.744 C9.497,19.449 10.181,19.860 10.969,19.840 C11.756,19.820 12.419,19.374 12.734,18.653 L19.675,2.789 C20.009,2.026 19.849,1.181 19.261,0.592 C18.671,0.003 17.827,-0.156 17.064,0.178 L1.200,7.119 C0.479,7.434 0.033,8.097 0.013,8.884 C-0.007,9.671 0.404,10.356 1.108,10.708 L5.531,12.920 L-0.008,18.459 L1.394,19.861 L1.394,19.861 ZM17.858,1.994 L10.918,17.858 L7.944,11.908 L1.995,8.935 L17.858,1.994 Z" class="f-icon mouse"/>
</svg>
