<svg xmlns="http://www.w3.org/2000/svg" xmlns:xlink="http://www.w3.org/1999/xlink" width="22" height="22" preserveAspectRatio="xMidYMid" viewBox="0 0 22 22"><path d="M11.000,21.999 C4.925,21.999 -0.000,17.074 -0.000,10.999 C-0.000,4.924 4.925,-0.001 11.000,-0.001 C17.075,-0.001 22.000,4.924 22.000,10.999 C22.000,17.074 17.075,21.999 11.000,21.999 ZM11.000,1.999 C6.029,1.999 2.000,6.028 2.000,10.999 C2.000,15.970 6.029,19.999 11.000,19.999 C15.970,19.999 20.000,15.970 20.000,10.999 C20.000,6.028 15.970,1.999 11.000,1.999 ZM6.000,10.736 L7.414,9.260 L10.000,12.047 L14.586,6.999 L16.000,8.475 L10.000,14.999 L6.000,10.736 Z" class="f-icon ok-good"/></svg>