<svg xmlns="http://www.w3.org/2000/svg" xmlns:xlink="http://www.w3.org/1999/xlink" width="40" height="40" preserveAspectRatio="xMidYMid" viewBox="0 0 40 40"><defs><style>.people{fill:#2688eb;fill-rule:evenodd}</style></defs><path d="M39.415,39.413 C39.026,39.803 38.551,40.000 38.001,40.000 L1.999,40.000 C1.448,40.000 0.974,39.803 0.585,39.413 C0.195,39.023 -0.001,38.548 0.000,37.997 L0.008,30.997 C0.009,30.196 0.451,29.510 1.180,29.179 L12.176,24.179 C12.949,23.827 13.816,23.984 14.416,24.585 L20.000,30.171 L25.583,24.585 C26.184,23.984 27.051,23.827 27.824,24.179 L38.820,29.179 C39.549,29.510 39.991,30.196 39.991,30.997 L40.000,37.997 C40.000,38.548 39.804,39.023 39.415,39.413 ZM37.992,30.999 L26.997,26.000 L20.000,32.999 L13.003,26.000 L2.007,30.999 L1.999,38.000 L38.001,38.000 L37.992,30.999 ZM20.000,23.999 C15.049,23.999 11.004,19.953 11.004,15.000 L11.004,8.999 C11.004,4.046 15.048,-0.000 20.000,-0.000 C24.951,-0.000 28.996,4.046 28.996,8.999 L28.996,15.000 C28.996,19.952 24.950,23.999 20.000,23.999 ZM26.997,8.999 C26.997,5.151 23.848,1.999 20.000,1.999 L20.000,1.999 C16.151,1.999 13.003,5.149 13.003,8.999 L13.003,15.000 C13.003,18.849 16.152,21.999 20.000,21.999 L20.000,21.999 C23.847,21.999 26.997,18.848 26.997,15.000 L26.997,8.999 Z" class="f-icon people"/></svg>