<svg xmlns="http://www.w3.org/2000/svg" xmlns:xlink="http://www.w3.org/1999/xlink" preserveAspectRatio="xMidYMid" width="40" height="40" viewBox="0 0 40 40">
  <defs>
    <style>
      .piggy {
        fill: #2688eb;
        fill-rule: evenodd;
      }
    </style>
  </defs>
  <path d="M38.000,25.000 L36.785,25.000 C33.879,31.959 26.449,35.999 19.000,35.999 C11.666,35.999 4.351,32.118 1.320,25.241 C0.451,23.269 -0.000,21.155 -0.000,19.000 C-0.000,16.844 0.451,14.730 1.320,12.759 C4.351,5.881 11.666,2.000 19.000,2.000 C21.346,2.000 23.681,2.383 25.894,3.153 L29.850,0.627 C30.643,0.120 31.032,0.001 31.999,0.001 C34.332,-0.000 35.000,2.089 35.000,3.994 C35.007,5.948 35.020,7.902 35.022,9.856 C35.932,11.130 36.658,12.523 37.165,14.000 L38.000,14.000 C39.102,14.000 40.000,14.898 40.000,16.000 L40.000,23.000 C40.000,24.101 39.102,25.000 38.000,25.000 ZM38.000,16.000 L35.660,16.000 C35.200,14.000 34.287,12.144 33.023,10.519 C33.023,8.338 33.000,4.000 33.000,4.000 C33.000,3.354 33.000,2.000 32.000,2.000 C31.250,2.000 31.237,2.115 30.927,2.313 L26.126,5.378 C23.958,4.494 21.544,4.000 19.000,4.000 C9.611,4.000 2.000,10.715 2.000,19.000 C2.000,27.284 9.611,33.999 19.000,33.999 C26.819,33.999 33.404,29.342 35.388,23.000 L38.000,23.000 L38.000,16.000 ZM15.000,8.000 L14.000,8.000 L14.000,6.000 L15.000,6.000 L23.000,6.000 L24.000,6.000 L24.000,8.000 L23.000,8.000 L15.000,8.000 ZM10.000,38.000 C10.665,38.000 18.000,38.000 18.000,38.000 C18.000,39.100 17.100,40.000 16.000,40.000 L10.000,40.000 C8.899,40.000 8.000,39.098 8.000,38.000 L8.000,35.186 C8.644,35.545 9.311,35.874 10.000,36.170 L10.000,38.000 ZM28.000,36.170 C28.688,35.874 29.356,35.545 30.000,35.186 L30.000,38.000 C30.000,39.100 29.101,40.000 28.000,40.000 L22.000,40.000 C20.900,40.000 20.000,39.099 20.000,38.000 L28.000,38.000 L28.000,36.170 Z" class="f-icon piggy"/>
</svg>
