<svg xmlns="http://www.w3.org/2000/svg" xmlns:xlink="http://www.w3.org/1999/xlink" preserveAspectRatio="xMidYMid" width="22" height="22" viewBox="0 0 22 22">
  <path d="M11.000,-0.001 C17.075,-0.001 22.000,4.924 22.000,10.999 C22.000,17.074 17.075,21.999 11.000,21.999 C4.925,21.999 -0.000,17.074 -0.000,10.999 C-0.000,4.924 4.925,-0.001 11.000,-0.001 L11.000,-0.001 ZM10.555,8.168 C10.095,7.861 9.474,7.985 9.168,8.445 C9.054,8.615 9.000,8.808 9.000,8.999 L9.000,12.999 C9.000,13.552 9.448,14.000 10.000,14.000 C10.229,14.000 10.440,13.923 10.609,13.793 L13.551,11.832 C14.010,11.527 14.136,10.908 13.832,10.449 C13.756,10.335 13.661,10.241 13.555,10.168 L10.555,8.168 L10.555,8.168 ZM11.000,1.999 C6.029,1.999 2.000,6.029 2.000,10.999 C2.000,15.970 6.029,19.999 11.000,19.999 C15.971,19.999 20.000,15.970 20.000,10.999 C20.000,6.029 15.971,1.999 11.000,1.999 Z" class="f-icon play-in-circle"/>
</svg>
