<svg xmlns="http://www.w3.org/2000/svg" xmlns:xlink="http://www.w3.org/1999/xlink" preserveAspectRatio="xMidYMid" width="22" height="22" viewBox="0 0 22 22">
  <path d="M11.000,21.999 C4.925,21.999 -0.000,17.074 -0.000,11.000 C-0.000,4.924 4.925,-0.001 11.000,-0.001 C17.075,-0.001 22.000,4.924 22.000,11.000 C22.000,17.074 17.075,21.999 11.000,21.999 ZM11.000,1.999 C6.029,1.999 2.000,6.028 2.000,10.999 C2.000,15.970 6.029,19.999 11.000,19.999 C15.970,19.999 20.000,15.970 20.000,10.999 C20.000,6.028 15.970,1.999 11.000,1.999 ZM12.001,15.999 L10.001,15.999 L10.001,11.999 L6.000,11.999 L6.000,10.000 L10.001,10.000 L10.001,6.003 L12.001,6.003 L12.001,10.000 L16.000,10.000 L16.000,11.999 L12.001,11.999 L12.001,15.999 Z" class="f-icon plus-in-circle"/>
</svg>
