<svg xmlns="http://www.w3.org/2000/svg" xmlns:xlink="http://www.w3.org/1999/xlink" preserveAspectRatio="xMidYMid" width="18" height="22" viewBox="0 0 18 22">
  <path d="M13.000,17.053 L13.000,20.000 C13.000,21.105 12.105,22.000 11.000,22.000 L7.000,22.000 C5.895,22.000 5.000,21.105 5.000,20.000 L5.000,17.053 C2.039,15.580 -0.000,12.532 -0.000,9.000 C-0.000,4.029 4.029,-0.000 9.000,-0.000 C13.971,-0.000 18.000,4.029 18.000,9.000 C18.000,12.532 15.961,15.580 13.000,17.053 ZM7.000,20.000 L11.000,20.000 L11.000,17.769 C10.356,17.916 9.688,18.000 9.000,18.000 C8.312,18.000 7.644,17.916 7.000,17.769 L7.000,20.000 ZM9.000,2.000 C5.134,2.000 2.000,5.134 2.000,9.000 C2.000,12.866 5.134,16.000 9.000,16.000 C12.866,16.000 16.000,12.866 16.000,9.000 C16.000,5.134 12.866,2.000 9.000,2.000 Z" class="f-icon recommendation"/>
</svg>
