<svg xmlns="http://www.w3.org/2000/svg" xmlns:xlink="http://www.w3.org/1999/xlink" width="20" height="20" preserveAspectRatio="xMidYMid" viewBox="0 0 20 20"><path d="M10.000,-0.000 C14.838,-0.000 18.873,3.435 19.800,8.000 L17.748,8.000 C16.860,4.549 13.728,2.000 10.000,2.000 C7.280,2.000 4.877,3.357 3.432,5.432 L6.000,8.000 L2.252,8.000 L0.200,8.000 L-0.000,8.000 L-0.000,2.000 L2.000,4.000 C3.824,1.571 6.728,-0.000 10.000,-0.000 L10.000,-0.000 ZM14.000,12.000 L17.748,12.000 L19.799,12.000 L20.000,12.000 L20.000,18.000 L18.000,16.000 C16.176,18.429 13.271,20.000 10.000,20.000 C5.162,20.000 1.127,16.564 0.200,12.000 L2.252,12.000 C3.140,15.450 6.272,18.000 10.000,18.000 C12.720,18.000 15.122,16.642 16.568,14.568 L14.000,12.000 Z" class="f-icon refresh"/></svg>