<svg xmlns="http://www.w3.org/2000/svg" xmlns:xlink="http://www.w3.org/1999/xlink" preserveAspectRatio="xMidYMid" width="22" height="22" viewBox="0 0 22 22">
  <path d="M11.000,7.000 C13.209,7.000 15.000,8.791 15.000,11.000 C15.000,13.209 13.209,15.000 11.000,15.000 C8.791,15.000 7.000,13.209 7.000,11.000 C7.000,8.791 8.791,7.000 11.000,7.000 L11.000,7.000 ZM10.000,-0.000 C9.096,-0.000 8.328,0.607 8.082,1.433 C7.460,1.623 6.863,1.871 6.298,2.173 C5.540,1.762 4.568,1.876 3.929,2.515 L2.514,3.929 C1.876,4.568 1.761,5.541 2.173,6.299 C1.871,6.864 1.623,7.460 1.433,8.082 C0.607,8.328 -0.000,9.096 -0.000,10.000 L-0.000,12.000 C-0.000,12.903 0.607,13.671 1.433,13.917 C1.623,14.539 1.871,15.136 2.172,15.701 C1.761,16.459 1.875,17.431 2.515,18.070 L3.929,19.485 C4.568,20.124 5.541,20.238 6.299,19.827 C6.863,20.128 7.460,20.377 8.082,20.567 C8.328,21.393 9.096,22.000 9.999,21.999 L12.000,22.000 C12.903,22.000 13.671,21.393 13.917,20.567 C14.540,20.377 15.136,20.129 15.701,19.827 C16.459,20.238 17.432,20.124 18.070,19.485 L19.485,18.071 C20.124,17.432 20.238,16.459 19.827,15.701 C20.129,15.137 20.377,14.540 20.567,13.917 C21.393,13.671 22.000,12.903 22.000,12.000 L22.000,10.000 C22.000,9.096 21.393,8.328 20.567,8.082 C20.377,7.460 20.129,6.863 19.827,6.298 C20.238,5.541 20.124,4.568 19.485,3.929 L18.071,2.514 C17.431,1.876 16.458,1.761 15.701,2.172 C15.136,1.871 14.540,1.623 13.917,1.433 C13.671,0.607 12.903,-0.000 12.000,-0.000 L10.000,-0.000 L10.000,-0.000 ZM13.334,18.653 C13.827,18.504 14.304,18.306 14.759,18.063 C15.369,17.737 16.045,17.739 16.656,18.071 L18.068,16.652 C17.739,16.044 17.737,15.370 18.063,14.760 C18.306,14.305 18.504,13.827 18.654,13.335 C18.855,12.673 19.334,12.198 20.000,12.000 L19.995,9.999 C19.333,9.802 18.855,9.326 18.654,8.665 C18.504,8.172 18.305,7.695 18.063,7.240 C17.737,6.630 17.739,5.954 18.071,5.343 L16.653,3.931 C16.045,4.261 15.370,4.262 14.760,3.937 C14.305,3.694 13.827,3.496 13.334,3.346 C12.673,3.144 12.197,2.666 12.000,2.000 L9.999,2.005 C9.802,2.667 9.326,3.144 8.665,3.346 C8.173,3.496 7.695,3.694 7.241,3.937 C6.630,4.263 5.954,4.261 5.343,3.929 L3.931,5.347 C4.260,5.955 4.263,6.630 3.937,7.240 C3.694,7.695 3.496,8.172 3.346,8.665 C3.144,9.326 2.666,9.802 2.000,9.999 L2.005,12.001 C2.667,12.198 3.144,12.673 3.346,13.334 C3.496,13.827 3.694,14.305 3.937,14.760 C4.263,15.370 4.261,16.045 3.929,16.656 L5.347,18.068 C5.955,17.739 6.629,17.737 7.240,18.062 C7.695,18.305 8.172,18.504 8.665,18.653 C9.326,18.855 9.802,19.334 9.999,20.000 L12.001,19.995 C12.198,19.333 12.673,18.855 13.334,18.653 L13.334,18.653 ZM11.000,9.000 C9.895,9.000 9.000,9.895 9.000,11.000 C9.000,12.104 9.895,13.000 11.000,13.000 C12.104,13.000 13.000,12.104 13.000,11.000 C13.000,9.895 12.104,9.000 11.000,9.000 Z" fill-rule="evenodd" class="f-icon settings"/>
</svg>
