<svg xmlns="http://www.w3.org/2000/svg" xmlns:xlink="http://www.w3.org/1999/xlink" width="22" height="22" preserveAspectRatio="xMidYMid" viewBox="0 0 22 22"><path d="M11.000,-0.000 C17.075,-0.000 22.000,4.925 22.000,11.000 C22.000,17.075 17.075,22.000 11.000,22.000 C4.925,22.000 -0.000,17.075 -0.000,11.000 C-0.000,4.925 4.925,-0.000 11.000,-0.000 L11.000,-0.000 ZM11.573,12.000 L7.389,19.246 C8.495,19.730 9.716,20.000 11.000,20.000 C15.632,20.000 19.447,16.500 19.944,12.000 L11.573,12.000 L11.573,12.000 ZM5.666,18.248 L9.850,11.000 L5.665,3.752 C3.442,5.390 2.000,8.026 2.000,11.000 C2.000,13.974 3.442,16.610 5.666,18.248 L5.666,18.248 ZM7.389,2.754 L11.572,10.000 L19.944,10.000 C19.447,5.500 15.632,2.000 11.000,2.000 C9.716,2.000 8.494,2.270 7.389,2.754 Z" class="f-icon statistics"/></svg>