<svg xmlns="http://www.w3.org/2000/svg" xmlns:xlink="http://www.w3.org/1999/xlink" width="80" height="80" preserveAspectRatio="xMidYMid" viewBox="0 0 80 80"><defs><style>.stop{fill:#f42c2c;fill-rule:evenodd}</style></defs><path d="M40.000,80.000 C17.909,80.000 -0.000,62.091 -0.000,40.000 C-0.000,17.909 17.909,-0.000 40.000,-0.000 C62.091,-0.000 80.000,17.909 80.000,40.000 C80.000,62.091 62.091,80.000 40.000,80.000 ZM40.000,2.000 C19.013,2.000 2.000,19.013 2.000,40.000 C2.000,60.987 19.013,78.000 40.000,78.000 C60.987,78.000 78.000,60.987 78.000,40.000 C78.000,19.013 60.987,2.000 40.000,2.000 ZM53.620,55.013 L40.000,41.394 L26.380,55.013 L24.987,53.620 L38.606,40.000 L24.987,26.380 L26.380,24.987 L40.000,38.606 L53.620,24.987 L55.013,26.380 L41.394,40.000 L55.013,53.620 L53.620,55.013 Z" class="stop"/></svg>