<svg xmlns="http://www.w3.org/2000/svg" xmlns:xlink="http://www.w3.org/1999/xlink" preserveAspectRatio="xMidYMid" width="20" height="20" viewBox="0 0 20 20">
  <path d="M17.782,20.000 L1.978,20.000 C1.211,20.000 0.554,19.588 0.211,18.894 C-0.132,18.199 -0.062,17.420 0.398,16.799 C1.810,14.896 3.719,13.488 5.872,12.705 C4.112,11.436 2.965,9.354 2.965,7.000 C2.965,3.134 6.061,-0.000 9.880,-0.000 C13.698,-0.000 16.794,3.134 16.794,7.000 C16.794,9.353 15.647,11.436 13.887,12.705 C16.041,13.487 17.949,14.896 19.362,16.798 C19.822,17.420 19.892,18.199 19.549,18.894 C19.206,19.588 18.549,20.000 17.782,20.000 L17.782,20.000 ZM9.880,12.000 L9.880,12.000 C12.608,12.000 14.819,9.761 14.819,7.000 C14.819,4.238 12.607,2.000 9.880,2.000 C7.152,2.000 4.940,4.238 4.940,7.000 C4.940,9.761 7.152,12.000 9.880,12.000 L9.880,12.000 ZM17.782,18.000 C15.980,15.571 13.111,13.999 9.880,13.999 L9.880,13.999 C6.648,13.999 3.780,15.571 1.978,18.000 L17.782,18.000 Z" class="f-icon user"/>
</svg>
