<svg xmlns="http://www.w3.org/2000/svg" xmlns:xlink="http://www.w3.org/1999/xlink" preserveAspectRatio="xMidYMid" width="20" height="20" viewBox="0 0 20 20">
  <path d="M10.000,20.000 C4.477,20.000 -0.000,15.523 -0.000,10.000 C-0.000,4.477 4.477,-0.000 10.000,-0.000 C15.523,-0.000 20.000,4.477 20.000,10.000 C20.000,15.523 15.523,20.000 10.000,20.000 ZM10.000,2.000 C5.582,2.000 2.000,5.582 2.000,10.000 C2.000,14.418 5.582,18.000 10.000,18.000 C14.418,18.000 18.000,14.418 18.000,10.000 C18.000,5.582 14.418,2.000 10.000,2.000 ZM11.343,12.714 L9.424,10.796 C9.174,10.614 9.000,10.333 9.000,10.000 L9.000,6.000 C9.000,5.447 9.448,5.000 10.000,5.000 C10.552,5.000 11.000,5.447 11.000,6.000 L11.000,9.628 L12.714,11.343 C13.093,11.721 13.093,12.335 12.714,12.714 C12.335,13.093 11.721,13.093 11.343,12.714 Z" class="watch"/>
</svg>
