<svg xmlns="http://www.w3.org/2000/svg" xmlns:xlink="http://www.w3.org/1999/xlink" preserveAspectRatio="xMidYMid" width="22" height="22" viewBox="0 0 22 22">
  <path d="M4.000,21.999 C2.896,21.999 1.895,21.551 1.172,20.827 L1.113,20.764 C0.424,20.043 -0.000,19.069 -0.000,17.999 C-0.000,17.464 0.109,16.948 0.305,16.473 L0.307,16.470 C0.509,15.978 0.806,15.537 1.172,15.171 L4.472,11.871 C4.355,11.523 4.258,11.162 4.183,10.791 C4.063,10.200 4.000,9.600 4.000,8.999 C4.000,6.514 5.008,4.264 6.636,2.635 C8.265,1.007 10.515,-0.001 13.000,-0.001 C13.600,-0.001 14.200,0.062 14.792,0.182 C15.396,0.304 15.973,0.484 16.515,0.714 C17.022,0.930 17.258,1.516 17.042,2.023 C16.991,2.145 16.918,2.250 16.830,2.338 L12.586,6.585 C12.202,6.968 12.000,7.457 12.000,7.999 C12.000,9.106 12.892,9.999 14.000,9.999 C14.276,9.999 14.535,9.946 14.765,9.851 C15.007,9.750 15.227,9.600 15.414,9.413 L19.660,5.168 C20.050,4.777 20.683,4.777 21.074,5.168 C21.185,5.279 21.264,5.409 21.312,5.549 C21.529,6.071 21.699,6.627 21.817,7.207 C21.937,7.799 22.000,8.399 22.000,8.999 C22.000,11.484 20.992,13.734 19.364,15.363 C17.735,16.991 15.485,17.999 13.000,17.999 C12.400,17.999 11.799,17.936 11.208,17.816 C10.837,17.741 10.476,17.644 10.128,17.528 L6.828,20.827 C6.462,21.194 6.021,21.490 5.530,21.694 L5.472,21.716 C5.012,21.898 4.515,21.999 4.000,21.999 L4.000,21.999 ZM2.586,19.413 C2.947,19.775 3.447,19.999 4.000,19.999 C4.262,19.999 4.507,19.951 4.728,19.866 L4.764,19.850 C5.006,19.749 5.227,19.600 5.414,19.413 L9.169,15.659 C9.449,15.381 9.881,15.283 10.266,15.447 C10.696,15.630 11.143,15.771 11.598,15.863 C12.038,15.952 12.507,15.999 13.000,15.999 C14.933,15.999 16.684,15.215 17.950,13.949 C19.216,12.683 20.000,10.932 20.000,8.999 C20.000,8.566 19.963,8.152 19.895,7.761 L16.828,10.827 C16.139,11.516 14.972,11.999 14.000,11.999 C12.896,11.999 11.896,11.551 11.172,10.827 C10.449,10.099 10.000,9.099 10.000,7.999 C10.000,6.943 10.425,5.918 11.172,5.171 L14.238,2.105 C13.846,2.035 13.432,1.999 13.000,1.999 C11.067,1.999 9.316,2.783 8.050,4.049 C6.784,5.316 6.000,7.066 6.000,8.999 C6.000,9.492 6.047,9.961 6.136,10.400 C6.224,10.836 6.356,11.262 6.527,11.675 C6.715,12.050 6.653,12.518 6.340,12.830 L2.586,16.585 C2.399,16.772 2.249,16.993 2.149,17.235 C2.053,17.464 2.000,17.723 2.000,17.999 C2.000,18.533 2.206,19.017 2.543,19.373 L2.586,19.413 Z" class="f-icon wrench"/>
</svg>
