<svg xmlns="http://www.w3.org/2000/svg" preserveAspectRatio="xMidYMid" width="49" height="15" viewBox="0 0 49 15"><defs><style>.logo-google-1{fill:#ea4335}.logo-google-1,.logo-google-2,.logo-google-3,.logo-google-4{fill-rule:evenodd}.logo-google-2{fill:#34a853}.logo-google-3{fill:#4285f4}.logo-google-4{fill:#fbbc05}</style></defs><path d="M45.68 10.121c-.872 0-1.489-.385-1.891-1.148l5.21-2.094-.175-.431c-.322-.848-1.314-2.413-3.332-2.413-2.004 0-3.674 1.533-3.674 3.79 0 2.126 1.649 3.79 3.862 3.79a3.911 3.911 0 0 0 3.245-1.677l-1.328-.861c-.442.626-1.046 1.044-1.917 1.044zm-.121-4.664c.691 0 1.281.346 1.475.835l-3.52 1.415c0-1.591 1.16-2.25 2.045-2.25z" class="logo-google-1"/><path d="M38.801.154h1.683v11.461h-1.683V.154z" class="logo-google-2"/><path d="M35.838 4.883h-.061c-.382-.444-1.119-.848-2.051-.848-1.944 0-3.641 1.65-3.641 3.79 0 2.126 1.697 3.79 3.641 3.79.932 0 1.669-.405 2.051-.861h.061v.528c0 1.448-.798 2.224-2.079 2.224-1.045 0-1.696-.73-1.964-1.35l-1.488.6a3.707 3.707 0 0 0 3.452 2.237c2.005 0 3.701-1.148 3.701-3.946V4.231h-1.622v.652zm-1.965 5.238c-1.18 0-2.078-.979-2.078-2.296 0-1.337.898-2.296 2.078-2.296 1.167 0 2.079.978 2.079 2.309.006 1.324-.912 2.283-2.079 2.283z" class="logo-google-3"/><path d="M25.392 4.035c-2.152 0-3.908 1.592-3.908 3.79 0 2.178 1.756 3.79 3.908 3.79 2.153 0 3.909-1.605 3.909-3.79 0-2.198-1.756-3.79-3.909-3.79zm0 6.086c-1.18 0-2.199-.946-2.199-2.296 0-1.364 1.019-2.296 2.199-2.296s2.199.932 2.199 2.296c0 1.35-1.019 2.296-2.199 2.296z" class="logo-google-4"/><path d="M16.677 4.035c-2.152 0-3.909 1.592-3.909 3.79 0 2.178 1.757 3.79 3.909 3.79s3.908-1.605 3.908-3.79c0-2.198-1.756-3.79-3.908-3.79zm0 6.086c-1.18 0-2.199-.946-2.199-2.296 0-1.364 1.019-2.296 2.199-2.296s2.199.932 2.199 2.296c0 1.35-1.019 2.296-2.199 2.296z" class="logo-google-1"/><path d="M6.111 5.34v1.604h3.942c-.121.9-.429 1.559-.899 2.022-.576.561-1.475 1.174-3.043 1.174-2.427 0-4.325-1.904-4.325-4.266 0-2.361 1.898-4.266 4.325-4.266 1.307 0 2.266.503 2.97 1.148l1.159-1.128C9.262.702 7.948-.003 6.111-.003c-3.326 0-6.122 2.635-6.122 5.871 0 3.235 2.796 5.87 6.122 5.87 1.796 0 3.151-.574 4.21-1.643 1.086-1.057 1.428-2.551 1.428-3.751a5.04 5.04 0 0 0-.087-1.004H6.111z" class="logo-google-3"/></svg>