<svg xmlns="http://www.w3.org/2000/svg" preserveAspectRatio="xMidYMid" width="41" height="16" viewBox="0 0 41 16"><defs><style>.logo-yandex-1,.logo-yandex-2{fill:#000;fill-rule:evenodd}.logo-yandex-2{fill:red}</style></defs><path d="M13.336 4.146v9.907h-1.519V9.611H9.53v4.442H7.992V4.146H9.53v4.207h2.287V4.146h1.519zM21.242 16h-1.38v-1.947h-4.259V16h-1.38v-3.205h.611c.907-2.103 1.006-5.169 1.006-7.803v-.846h4.614v8.649h.788V16zM18.935 5.385H17.22v.177c0 2.083-.099 5.13-.927 7.233h2.642v-7.41zm6.547 8.806c-2.051 0-3.313-1.631-3.313-4.678 0-3.185.888-5.504 2.997-5.504 1.657 0 2.741 1.238 2.741 4.6v.845h-4.141c0 2.241.631 3.42 1.854 3.42.867 0 1.558-.393 1.952-.668l.355 1.179c-.631.492-1.459.806-2.445.806zm-1.696-5.995h2.544c0-1.691-.276-2.929-1.164-2.929-.946 0-1.281 1.16-1.38 2.929zm7.237.924v4.933h-1.538V4.146h1.538v4.58l2.385-4.58h1.558l-2.465 4.659 2.82 5.248h-1.676L31.023 9.12zm4.495-.02c0-3.106 1.203-5.091 3.53-5.091.887 0 1.4.236 1.834.511l-.217 1.454c-.414-.353-1.006-.688-1.637-.688-1.104 0-1.893 1.239-1.893 3.735 0 2.477.592 3.892 1.834 3.892.749 0 1.321-.294 1.676-.609l.355 1.14c-.533.452-1.163.747-2.071.747-2.129 0-3.411-1.71-3.411-5.091z" class="logo-yandex-1"/><path d="M4.187 8.629l-2.421 5.362H0l2.659-5.734C1.409 7.631.576 6.496.576 4.402c0-2.936 1.885-4.403 4.127-4.403h2.282v13.992H5.457V8.629h-1.27zm1.27-7.358h-.813c-1.231 0-2.421.802-2.421 3.131 0 2.25 1.091 2.974 2.421 2.974h.813V1.271z" class="logo-yandex-2"/></svg>