<svg xmlns="http://www.w3.org/2000/svg" preserveAspectRatio="xMidYMid" width="22" height="22" viewBox="0 0 22 22"><path d="M11 7a4 4 0 1 1 0 8 4 4 0 0 1 0-8zm-1-7c-.904 0-1.672.607-1.918 1.433a9.947 9.947 0 0 0-1.784.74 2.006 2.006 0 0 0-2.369.342L2.514 3.929a2.007 2.007 0 0 0-.341 2.37 9.938 9.938 0 0 0-.74 1.783A2.008 2.008 0 0 0 0 10v2c0 .903.607 1.671 1.433 1.917.19.622.438 1.219.739 1.784a2.005 2.005 0 0 0 .343 2.369l1.414 1.415a2.007 2.007 0 0 0 2.37.342 9.98 9.98 0 0 0 1.783.74 2.006 2.006 0 0 0 1.917 1.432L12 22c.903 0 1.671-.607 1.917-1.433a9.917 9.917 0 0 0 1.784-.74 2.006 2.006 0 0 0 2.369-.342l1.415-1.414a2.007 2.007 0 0 0 .342-2.37c.302-.564.55-1.161.74-1.784A2.008 2.008 0 0 0 22 12v-2c0-.904-.607-1.672-1.433-1.918a9.947 9.947 0 0 0-.74-1.784 2.006 2.006 0 0 0-.342-2.369l-1.414-1.415a2.01 2.01 0 0 0-2.37-.342 9.987 9.987 0 0 0-1.784-.739A2.008 2.008 0 0 0 12 0h-2zm3.334 18.653a7.84 7.84 0 0 0 1.425-.59 1.946 1.946 0 0 1 1.897.008l1.412-1.419a1.945 1.945 0 0 1-.005-1.892c.243-.455.441-.933.591-1.425A1.947 1.947 0 0 1 20 12l-.005-2.001a1.946 1.946 0 0 1-1.341-1.334 7.988 7.988 0 0 0-.591-1.425 1.946 1.946 0 0 1 .008-1.897l-1.418-1.412a1.946 1.946 0 0 1-1.893.006 7.925 7.925 0 0 0-1.426-.591A1.947 1.947 0 0 1 12 2l-2.001.005a1.948 1.948 0 0 1-1.334 1.341c-.492.15-.97.348-1.424.591a1.948 1.948 0 0 1-1.898-.008L3.931 5.347c.329.608.332 1.283.006 1.893a7.915 7.915 0 0 0-.591 1.425A1.947 1.947 0 0 1 2 9.999l.005 2.002a1.946 1.946 0 0 1 1.341 1.333c.15.493.348.971.591 1.426.326.61.324 1.285-.008 1.896l1.418 1.412a1.95 1.95 0 0 1 1.893-.006c.455.243.932.442 1.425.591A1.949 1.949 0 0 1 9.999 20l2.002-.005a1.948 1.948 0 0 1 1.333-1.342zM11 9a2 2 0 1 0-.001 3.999A2 2 0 0 0 11 9z" fill-rule="evenodd" class="f-icon settings"/></svg>