<svg xmlns="http://www.w3.org/2000/svg" preserveAspectRatio="xMidYMid" width="80" height="80" viewBox="0 0 80 80"><defs><style>.stop{fill:#f42c2c;fill-rule:evenodd}</style></defs><path d="M40 80C17.909 80 0 62.091 0 40S17.909 0 40 0s40 17.909 40 40-17.909 40-40 40zm0-78C19.013 2 2 19.013 2 40s17.013 38 38 38 38-17.013 38-38S60.987 2 40 2zm13.62 53.013L40 41.394 26.38 55.013l-1.393-1.393L38.606 40 24.987 26.38l1.393-1.393L40 38.606l13.62-13.619 1.393 1.393L41.394 40l13.619 13.62-1.393 1.393z" class="stop"/></svg>