<svg xmlns="http://www.w3.org/2000/svg" preserveAspectRatio="xMidYMid" width="36" height="40" viewBox="0 0 36 40"><defs><style>.time-icon{fill:#2688eb;fill-rule:evenodd}</style></defs><path d="M36 22c0 9.941-8.059 18-18 18S0 31.941 0 22C0 12.396 7.527 4.572 17 4.05V2h-3V0h8v2h-3v2.05a17.95 17.95 0 0 1 10.987 4.548l2.862-2.862 1.414 1.414-2.866 2.867C34.251 13.196 36 17.387 36 22zM18 6C9.163 6 2 13.163 2 22c0 8.836 7.163 16 16 16 8.836 0 16-7.164 16-16 0-8.837-7.164-16-16-16zm1 17.722V26h-2v-2.278c-.595-.346-1-.984-1-1.722 0-.739.405-1.377 1-1.723V10h2v10.277c.595.346 1 .984 1 1.723 0 .738-.405 1.376-1 1.722z" class="f-icon time-icon"/></svg>