<svg xmlns="http://www.w3.org/2000/svg" preserveAspectRatio="xMidYMid" width="22" height="22" viewBox="0 0 22 22"><path d="M11.05 2.464l.707-.707A6.013 6.013 0 0 1 16 0a5.99 5.99 0 0 1 5.542 3.705C21.847 4.443 22 5.224 22 6a5.979 5.979 0 0 1-1.758 4.242l-10 10a6.002 6.002 0 0 1-8.485 0A6.013 6.013 0 0 1 0 16c0-1.535.586-3.071 1.757-4.243l6-5.999a3.958 3.958 0 0 1 2.785-1.154 3.96 3.96 0 0 1 2.786 1.154c.372.372.657.809.852 1.28.201.485.302.998.302 1.505 0 .507-.101 1.02-.302 1.505v.004a3.93 3.93 0 0 1-.852 1.276l-6 6-1.414-1.414 6-6a1.925 1.925 0 0 0 .568-1.371c0-.259-.049-.514-.146-.747a1.915 1.915 0 0 0-.422-.624 1.94 1.94 0 0 0-.624-.423 1.954 1.954 0 0 0-.748-.145c-.257 0-.511.048-.744.143a1.974 1.974 0 0 0-.627.425l-6 5.999a4.022 4.022 0 0 0-.869 4.366c.192.464.482.905.869 1.292a4.022 4.022 0 0 0 4.366.869 4.015 4.015 0 0 0 1.292-.869l10-10a4.022 4.022 0 0 0 .869-4.366 4.015 4.015 0 0 0-5.235-2.161 3.983 3.983 0 0 0-1.292.869l-.707.707-1.414-1.414z" class="f-icon attach"/></svg>