<svg xmlns="http://www.w3.org/2000/svg" preserveAspectRatio="xMidYMid" width="22" height="20" viewBox="0 0 22 20"><path d="M21.933 10.437c-.608 2.711-2.318 5.098-4.448 6.837C15.741 18.698 13.286 20 10.984 20c-2.303 0-4.758-1.302-6.502-2.726-2.13-1.739-3.84-4.126-4.448-6.837a1.902 1.902 0 0 1 0-.875c.608-2.711 2.318-5.098 4.448-6.838C6.226 1.301 8.681-.001 10.984-.001c2.302 0 4.757 1.302 6.501 2.725 2.13 1.74 3.84 4.127 4.448 6.838.068.302.068.573 0 .875zM10.984 1.999c-3 0-7.968 3.4-8.999 8 1.031 4.601 5.999 8 8.999 8 2.999 0 7.967-3.399 8.998-8-1.031-4.6-5.999-8-8.998-8zm0 12.001a3.99 3.99 0 0 1-2.828-1.172 3.988 3.988 0 0 1-1.172-2.829c0-1.104.448-2.104 1.172-2.828A3.989 3.989 0 0 1 10.984 6c1.103 0 2.104.448 2.827 1.171a3.988 3.988 0 0 1 1.172 2.828 3.988 3.988 0 0 1-1.172 2.829A3.99 3.99 0 0 1 10.984 14zm1.413-5.415a1.998 1.998 0 0 0-3.413 1.414 1.998 1.998 0 0 0 3.413 1.415c.362-.362.586-.862.586-1.415 0-.552-.224-1.052-.586-1.414z" class="f-icon eyes"/></svg>