<svg xmlns="http://www.w3.org/2000/svg" preserveAspectRatio="xMidYMid" width="80" height="80" viewBox="0 0 80 80"><defs><style>.good{fill:#42cc05;fill-rule:evenodd}</style></defs><path d="M40 80C17.909 80 0 62.091 0 40S17.909 0 40 0s40 17.909 40 40-17.909 40-40 40zm0-78C19.013 2 2 19.013 2 40s17.013 38 38 38 38-17.013 38-38S60.987 2 40 2zm-3.003 48.543l-1.454 1.454-.043-.043-.043.043-1.454-1.454.043-.043-11.043-11.043 1.454-1.454L35.5 49.046l21.043-21.043 1.454 1.454L36.954 50.5l.043.043z" class="good"/></svg>