<svg xmlns="http://www.w3.org/2000/svg" preserveAspectRatio="xMidYMid" width="197.531" height="29.5" viewBox="0 0 197.531 29.5"><defs><style>.googleanalytics-1{fill:#63666a;fill-rule:evenodd}.googleanalytics-2,.googleanalytics-3,.googleanalytics-4,.googleanalytics-5,.googleanalytics-6{fill-rule:evenodd}.googleanalytics-2{fill:#ea4335}.googleanalytics-3{fill:#34a853}.googleanalytics-4{fill:#4285f4}.googleanalytics-5{fill:#fbbd09}.googleanalytics-6{fill:#ea453a}</style></defs><path d="M192.83 9.579c-1.169 0-2.096.193-2.782.58-.686.387-1.028.923-1.028 1.608 0 .748.265 1.345.797 1.793.532.449 1.571.95 3.118 1.503 1.292.466 2.233.886 2.822 1.259.588.374 1.03.798 1.325 1.273.294.474.441 1.032.441 1.674 0 1.283-.488 2.27-1.463 2.96-.976.69-2.36 1.034-4.153 1.034-1.916 0-3.437-.294-4.562-.883v-1.41a10.08 10.08 0 0 0 4.562 1.081c1.415 0 2.489-.235 3.223-.706.734-.47 1.101-1.096 1.101-1.878 0-.721-.292-1.327-.876-1.82-.585-.492-1.545-.975-2.881-1.45-1.433-.518-2.439-.964-3.019-1.338-.58-.374-1.018-.795-1.312-1.266-.295-.47-.442-1.043-.442-1.72 0-1.072.451-1.92 1.352-2.545.901-.623 2.16-.935 3.777-.935 1.547 0 3.014.289 4.403.869l-.488 1.187c-1.406-.58-2.711-.87-3.915-.87zm-11.127 0c-1.758 0-3.09.543-3.995 1.628-.905 1.086-1.358 2.648-1.358 4.687 0 1.934.453 3.448 1.358 4.542.905 1.094 2.171 1.641 3.797 1.641 1.301 0 2.509-.233 3.626-.699v1.213c-.915.449-2.114.672-3.6.672-2.047 0-3.651-.646-4.811-1.937-1.161-1.293-1.741-3.094-1.741-5.406 0-2.373.602-4.221 1.806-5.543 1.204-1.323 2.852-1.984 4.944-1.984 1.24 0 2.426.215 3.56.646l-.356 1.16c-1.239-.414-2.316-.62-3.23-.62zm-11.351-3.612c-.554 0-.831-.427-.831-1.279 0-.844.277-1.266.831-1.266.272 0 .485.11.639.33.154.22.231.532.231.936 0 .395-.077.708-.231.936a.729.729 0 0 1-.639.343zm-5.933 17.296c-1.265 0-2.199-.338-2.801-1.015-.602-.676-.903-1.74-.903-3.19V9.803h-2.123v-.764l2.123-.594.659-3.243h.672v3.467h4.206v1.134h-4.206v9.07c0 1.099.193 1.912.58 2.439.387.528.993.791 1.82.791.826 0 1.546-.07 2.162-.211v1.055c-.633.211-1.363.316-2.189.316zm-13.882 4.799a3.494 3.494 0 0 1-1.233 1.068c-.47.238-1.039.356-1.707.356-.501 0-1.059-.092-1.674-.277v-1.133c.509.14 1.059.21 1.648.21.448 0 .843-.105 1.186-.316.343-.211.653-.538.93-.982.276-.444.597-1.147.962-2.109.365-.963.6-1.589.705-1.879L145.87 8.669h1.345l3.032 8.042c.923 2.47 1.507 4.136 1.753 4.997h.079c.369-1.134.971-2.826 1.807-5.076l3.032-7.963h1.344l-6.42 16.651c-.519 1.354-.954 2.268-1.305 2.742zm-8.372-25.576h1.305V23h-1.305V2.486zm-5.932 18.246h-.106c-.721.923-1.461 1.576-2.221 1.958-.761.382-1.659.573-2.696.573-1.407 0-2.501-.36-3.283-1.08-.782-.721-1.173-1.719-1.173-2.993 0-1.398.582-2.483 1.746-3.257 1.165-.773 2.85-1.182 5.056-1.226l2.729-.079v-.949c0-1.362-.276-2.39-.83-3.085-.554-.694-1.446-1.041-2.676-1.041-1.328 0-2.703.369-4.127 1.107l-.488-1.134c1.574-.738 3.129-1.107 4.667-1.107 1.574 0 2.749.409 3.527 1.226s1.167 2.092 1.167 3.823V23h-.963l-.329-2.268zm0-5.023l-2.505.106c-2.013.097-3.448.411-4.305.942-.857.532-1.285 1.361-1.285 2.485 0 .897.275 1.594.824 2.09.549.497 1.325.745 2.327.745 1.529 0 2.735-.437 3.619-1.312.883-.874 1.325-2.089 1.325-3.645v-1.411zm-14.305-2.004c0-1.441-.303-2.489-.909-3.144-.607-.655-1.547-.982-2.822-.982-1.713 0-2.968.433-3.763 1.299-.796.865-1.194 2.269-1.194 4.212V23h-1.305V8.669h1.108l.25 1.965h.079c.932-1.494 2.589-2.241 4.97-2.241 3.252 0 4.878 1.744 4.878 5.233V23h-1.292v-9.295zm-16.584 2.492h-7.832L94.823 23h-1.49l7.752-19.354h.857L109.536 23h-1.516l-2.676-6.803zm-3.072-8.16a33.254 33.254 0 0 1-.791-2.268 21.363 21.363 0 0 1-.778 2.294L98 14.984h6.895l-2.623-6.947zM171.011 23h-1.305V8.669h1.305V23z" class="googleanalytics-1"/><path d="M81.998 19.242c-1.576 0-2.692-.711-3.42-2.121L88 13.255l-.315-.795c-.582-1.566-2.377-4.457-6.027-4.457-3.625 0-6.645 2.831-6.645 6.998 0 3.927 2.983 6.999 6.985 6.999 3.225 0 5.093-1.964 5.869-3.096l-2.401-1.59c-.8 1.157-1.892 1.928-3.468 1.928zm-.218-8.613c1.249 0 2.316.638 2.667 1.542l-6.366 2.614c0-2.94 2.098-4.156 3.699-4.156z" class="googleanalytics-2"/><path d="M70.002.006h2.991V22h-2.991V.006z" class="googleanalytics-3"/><path d="M65.143 9.55h-.107c-.673-.809-1.972-1.547-3.614-1.547-3.425 0-6.413 3.011-6.413 6.914 0 3.88 2.988 6.915 6.413 6.915 1.642 0 2.941-.738 3.614-1.571h.107v.964c0 2.642-1.406 4.058-3.662 4.058-1.843 0-2.988-1.333-3.461-2.463l-2.622 1.095c.756 1.832 2.752 4.082 6.083 4.082 3.532 0 6.52-2.095 6.52-7.2V8.36h-2.858v1.19zm-3.461 9.557c-2.079 0-3.662-1.786-3.662-4.19 0-2.439 1.583-4.189 3.662-4.189 2.055 0 3.661 1.785 3.661 4.213.012 2.416-1.606 4.166-3.661 4.166z" class="googleanalytics-4"/><path d="M46.004 8.003c-3.856 0-7.003 2.939-7.003 6.998 0 4.024 3.147 6.999 7.003 6.999 3.855 0 7.002-2.963 7.002-6.999 0-4.059-3.147-6.998-7.002-6.998zm0 11.239c-2.114 0-3.94-1.747-3.94-4.241 0-2.517 1.826-4.24 3.94-4.24s3.939 1.723 3.939 4.24c0 2.494-1.825 4.241-3.939 4.241z" class="googleanalytics-5"/><path d="M30.01 8.003c-3.856 0-7.003 2.939-7.003 6.998 0 4.024 3.147 6.999 7.003 6.999 3.856 0 7.003-2.963 7.003-6.999 0-4.059-3.147-6.998-7.003-6.998zm0 11.239c-2.114 0-3.94-1.747-3.94-4.241 0-2.517 1.826-4.24 3.94-4.24s3.94 1.723 3.94 4.24c0 2.494-1.826 4.241-3.94 4.241z" class="googleanalytics-6"/><path d="M10.926 10.013v3.009h7.036c-.215 1.688-.765 2.924-1.603 3.792-1.029 1.052-2.633 2.202-5.433 2.202-4.332 0-7.719-3.572-7.719-8s3.387-8 7.719-8c2.333 0 4.045.942 5.301 2.153l2.07-2.116C16.55 1.316 14.205-.005 10.926-.005 4.99-.005 0 4.936 0 11.004c0 6.067 4.99 11.009 10.926 11.009 3.207 0 5.624-1.077 7.515-3.083 1.939-1.982 2.549-4.783 2.549-7.033 0-.698-.048-1.346-.156-1.884h-9.908z" class="googleanalytics-4"/></svg>