<svg xmlns="http://www.w3.org/2000/svg" preserveAspectRatio="xMidYMid" width="22" height="22" viewBox="0 0 22 22"><path d="M11 22C4.925 22 0 17.075 0 11S4.925 0 11 0s11 4.925 11 11-4.925 11-11 11zm4.882-14.468A5.959 5.959 0 0 1 17 11c0 1.295-.42 2.487-1.118 3.468l2.146 2.146A8.96 8.96 0 0 0 20 11a8.96 8.96 0 0 0-1.972-5.614l-2.146 2.146zM7 11a4 4 0 1 0 8 0 4 4 0 0 0-8 0zm9.614 7.028l-2.146-2.146A5.959 5.959 0 0 1 11 17a5.959 5.959 0 0 1-3.468-1.118l-2.146 2.146A8.96 8.96 0 0 0 11 20a8.96 8.96 0 0 0 5.614-1.972zM3.972 16.614l2.146-2.146A5.959 5.959 0 0 1 5 11c0-1.295.42-2.487 1.118-3.468L3.972 5.386A8.96 8.96 0 0 0 2 11a8.96 8.96 0 0 0 1.972 5.614zM5.386 3.972l2.146 2.146A5.959 5.959 0 0 1 11 5c1.295 0 2.487.42 3.468 1.118l2.146-2.146A8.96 8.96 0 0 0 11 2a8.96 8.96 0 0 0-5.614 1.972z" class="f-icon lifevest"/></svg>