<svg xmlns="http://www.w3.org/2000/svg" preserveAspectRatio="xMidYMid" width="22" height="22" viewBox="0 0 22 22"><path d="M12 0c5.523 0 10 4.477 10 10a9.957 9.957 0 0 1-2.258 6.328L22 18.586 20.586 20 2 1.414 3.414 0l2.257 2.258A9.96 9.96 0 0 1 12 0zm6.319 14.905A8 8 0 0 0 7.094 3.68l11.225 11.225zm-1.694 3.963l-1.502-1.502a7.96 7.96 0 0 1-3.123.633A7.999 7.999 0 0 1 4.633 6.876L3.132 5.375A9.953 9.953 0 0 0 2 10c0 2.401.846 4.604 2.257 6.328L0 20.586 1.414 22l4.258-4.258A9.957 9.957 0 0 0 12 20a9.953 9.953 0 0 0 4.625-1.132z" class="f-icon loupe-strikeout"/></svg>