<svg xmlns="http://www.w3.org/2000/svg" preserveAspectRatio="xMidYMid" width="180" height="32" viewBox="0 0 180 32"><defs><style>.metrika-1,.metrika-2{fill:#000;fill-rule:evenodd}.metrika-2{fill:red}</style></defs><path d="M27.408 8.257v17.934h-2.866v-8.042h-4.316v8.042h-2.903V8.257h2.903v7.614h4.316V8.257h2.866zm14.921 21.457h-2.604v-3.523h-8.038v3.523h-2.605v-5.801h1.154c1.711-3.807 1.897-9.358 1.897-14.127V8.257h8.708v15.656h1.488v5.801zm-4.353-19.216h-3.238v.321c0 3.771-.186 9.287-1.749 13.094h4.987V10.498zM50.33 26.44c-3.87 0-6.252-2.954-6.252-8.469 0-5.765 1.675-9.964 5.657-9.964 3.125 0 5.172 2.242 5.172 8.327v1.53h-7.815c0 4.057 1.191 6.192 3.498 6.192 1.638 0 2.94-.712 3.684-1.21l.67 2.135c-1.191.89-2.754 1.459-4.614 1.459zm-3.2-10.853h4.8c0-3.06-.521-5.302-2.195-5.302-1.787 0-2.419 2.099-2.605 5.302zm13.656 1.672v8.932h-2.902V8.257h2.902v8.291l4.503-8.291h2.939l-4.651 8.433 5.321 9.501h-3.163l-4.949-8.932zm8.484-.035c0-5.623 2.27-9.217 6.661-9.217 1.675 0 2.642.428 3.461.926l-.41 2.633c-.781-.641-1.897-1.246-3.088-1.246-2.084 0-3.572 2.242-3.572 6.761 0 4.484 1.116 7.046 3.46 7.046 1.414 0 2.494-.534 3.163-1.103l.67 2.064c-1.005.818-2.195 1.352-3.907 1.352-4.019 0-6.438-3.096-6.438-9.216zm20.917-9.495c-.367-1.358-.66-2.534-.88-3.746h-.11c.073 1.248.11 2.571.11 3.894v18.404h-1.615V.015h2.128l4.441 16.788c.183.698.44 2.058.55 3.049h.11c.147-.991.441-2.388.624-3.049L100.023.015h2.056v26.266h-1.763V7.877c0-1.25.074-2.571.147-3.894h-.147a92.48 92.48 0 0 1-.88 3.636l-3.927 14.622h-1.432l-3.89-14.512zm16.505 9.586h8.37c.587-6.577-1.468-9.92-4.662-9.92-3.12 0-5.396 3.564-5.396 9.627 0 6.062 1.798 9.627 5.726 9.627 2.937 0 4.331-2.095 4.331-2.095l-.55-1.397s-1.285 1.985-3.744 1.985c-2.679 0-4.001-2.755-4.075-7.827zm3.708-8.488c1.873 0 3.341 2.205 3.047 7.129h-6.718c.147-4.63 1.726-7.129 3.671-7.129zm16.756.368V7.762h-10.283v1.433h4.296v17.086h1.727V9.196h4.26v-.001zm25.373 17.086h1.651V7.762h-1.505l-6.018 13.008c-.367.807-.734 1.617-.991 2.462h-.11c.073-.809.147-1.617.147-2.608V7.761h-1.617v18.52h1.469l6.02-13.044a16.53 16.53 0 0 0 .991-2.388h.11c-.091.842-.14 1.688-.147 2.535v12.897zm7.48-9.59l6.423 9.59h1.91l-6.535-9.921 6.093-8.598h-1.688l-6.203 8.708V7.762h-1.726v18.519h1.726v-9.59zm-22.176 6.421c.71-1.408 1.065-3.583 1.065-6.523 0-2.45-.305-4.349-.918-5.696-.611-1.348-1.457-2.022-2.534-2.022-.415 0-.813.104-1.192.313-.38.209-.734.484-1.066.827a6.45 6.45 0 0 0-.898 1.194c-.27.452-.503.926-.699 1.415v10.364c.368.76.82 1.323 1.359 1.691.538.367 1.224.55 2.056.55 1.176 0 2.117-.703 2.827-2.113zm-4.863 3.014a4.027 4.027 0 0 1-1.379-1.158v7.02h-1.725V7.732h1.505l.147 3.05a8.614 8.614 0 0 1 1.653-2.37c.684-.699 1.541-1.048 2.57-1.048.758 0 1.444.22 2.056.661.612.442 1.126 1.061 1.541 1.857.417.796.735 1.751.956 2.866.22 1.115.33 2.347.33 3.695 0 3.405-.526 5.946-1.579 7.626-1.053 1.678-2.436 2.516-4.149 2.516a4.034 4.034 0 0 1-1.928-.459h.002zm45.443.155h1.578c-.22-.698-.404-2.131-.404-3.417V12.759c0-3.674-1.725-5.364-4.771-5.364-2.094 0-3.635.919-4.369 1.874l.477 1.653c.88-1.287 2.312-2.021 3.891-2.021 2.019 0 3.084 1.213 3.084 4.042v2.315h-2.019c-4.002 0-6.167 2.057-6.167 6.026 0 3.38 1.725 5.365 4.221 5.365 1.835 0 3.158-1.103 4.038-2.867.111 1.324.294 2.022.44 2.499h.001zm-4.111-1.029c-1.763 0-2.901-1.507-2.901-4.115 0-3.234 1.468-4.63 4.516-4.63h1.982v5.108c-.66 1.984-1.873 3.637-3.598 3.637h.001z" class="metrika-1"/><path d="M8.29 16.223L3.497 26.282H0l5.265-10.756C2.79 14.351 1.14 12.222 1.14 8.294c0-5.507 3.732-8.26 8.172-8.26h4.518v26.248h-3.025V16.223H8.29zM10.805 2.42H9.194c-2.436 0-4.793 1.505-4.793 5.874 0 4.221 2.161 5.58 4.793 5.58h1.611V2.42z" class="metrika-2"/></svg>