<svg xmlns="http://www.w3.org/2000/svg" preserveAspectRatio="xMidYMid" width="40" height="40" viewBox="0 0 40 40"><defs><style>.people{fill:#2688eb;fill-rule:evenodd}</style></defs><path d="M39.415 39.413a1.93 1.93 0 0 1-1.414.587H1.999a1.93 1.93 0 0 1-1.414-.587A1.93 1.93 0 0 1 0 37.997l.008-7a1.962 1.962 0 0 1 1.172-1.818l10.996-5a1.965 1.965 0 0 1 2.24.406L20 30.171l5.583-5.586a1.967 1.967 0 0 1 2.241-.406l10.996 5a1.96 1.96 0 0 1 1.171 1.818l.009 7c0 .551-.196 1.026-.585 1.416zm-1.423-8.414L26.997 26 20 32.999 13.003 26 2.007 30.999 1.999 38h36.002l-.009-7.001zm-17.992-7c-4.951 0-8.996-4.046-8.996-8.999V8.999C11.004 4.046 15.048 0 20 0c4.951 0 8.996 4.046 8.996 8.999V15c0 4.952-4.046 8.999-8.996 8.999zm6.997-15c0-3.848-3.149-7-6.997-7-3.849 0-6.997 3.15-6.997 7V15c0 3.849 3.149 6.999 6.997 6.999 3.847 0 6.997-3.151 6.997-6.999V8.999z" class="f-icon people"/></svg>