<svg xmlns="http://www.w3.org/2000/svg" preserveAspectRatio="xMidYMid" width="40" height="40" viewBox="0 0 40 40"><defs><style>.piggy{fill:#2688eb;fill-rule:evenodd}</style></defs><path d="M38 25h-1.215C33.879 31.959 26.449 35.999 19 35.999c-7.334 0-14.649-3.881-17.68-10.758A15.44 15.44 0 0 1 0 19c0-2.156.451-4.27 1.32-6.241C4.351 5.881 11.666 2 19 2c2.346 0 4.681.383 6.894 1.153L29.85.627c.793-.507 1.182-.626 2.149-.626C34.332 0 35 2.089 35 3.994c.007 1.954.02 3.908.022 5.862A16.164 16.164 0 0 1 37.165 14H38c1.102 0 2 .898 2 2v7c0 1.101-.898 2-2 2zm0-9h-2.34c-.46-2-1.373-3.856-2.637-5.481C33.023 8.338 33 4 33 4c0-.646 0-2-1-2-.75 0-.763.115-1.073.313l-4.801 3.065A18.862 18.862 0 0 0 19 4C9.611 4 2 10.715 2 19c0 8.284 7.611 14.999 17 14.999 7.819 0 14.404-4.657 16.388-10.999H38v-7zM15 8h-1V6h10v2h-9zm-5 30h8c0 1.1-.9 2-2 2h-6c-1.101 0-2-.902-2-2v-2.814c.644.359 1.311.688 2 .984V38zm18-1.83a21.818 21.818 0 0 0 2-.984V38c0 1.1-.899 2-2 2h-6c-1.1 0-2-.901-2-2h8v-1.83z" class="f-icon piggy"/></svg>