<svg xmlns="http://www.w3.org/2000/svg" preserveAspectRatio="xMidYMid" width="20" height="20" viewBox="0 0 20 20"><path d="M17.782 20H1.978a1.934 1.934 0 0 1-1.767-1.106 1.98 1.98 0 0 1 .187-2.095 11.868 11.868 0 0 1 5.474-4.094A7.016 7.016 0 0 1 2.965 7c0-3.866 3.096-7 6.915-7 3.818 0 6.914 3.134 6.914 7a7.017 7.017 0 0 1-2.907 5.705 11.868 11.868 0 0 1 5.475 4.093c.46.622.53 1.401.187 2.096-.343.694-1 1.106-1.767 1.106zM9.88 12c2.728 0 4.939-2.239 4.939-5 0-2.762-2.212-5-4.939-5-2.728 0-4.94 2.238-4.94 5 0 2.761 2.212 5 4.94 5zm7.902 6c-1.802-2.429-4.671-4.001-7.902-4.001-3.232 0-6.1 1.572-7.902 4.001h15.804z" class="f-icon user"/></svg>