<svg xmlns="http://www.w3.org/2000/svg" preserveAspectRatio="xMidYMid" width="22" height="22" viewBox="0 0 22 22"><path d="M4 21.999a3.986 3.986 0 0 1-2.828-1.172l-.059-.063a3.992 3.992 0 0 1-.808-4.291l.002-.003c.202-.492.499-.933.865-1.299l3.3-3.3a8.965 8.965 0 0 1-.289-1.08 8.976 8.976 0 0 1 2.453-8.156A8.976 8.976 0 0 1 14.792.182a8.944 8.944 0 0 1 1.723.532.998.998 0 0 1 .315 1.624l-4.244 4.247A1.957 1.957 0 0 0 12 7.999c0 1.107.892 2 2 2 .276 0 .535-.053.765-.148.242-.101.462-.251.649-.438l4.246-4.245a.999.999 0 0 1 1.652.381c.217.522.387 1.078.505 1.658a8.976 8.976 0 0 1-2.453 8.156 8.976 8.976 0 0 1-8.156 2.453 9.152 9.152 0 0 1-1.08-.288l-3.3 3.299a4 4 0 0 1-1.298.867l-.058.022c-.46.182-.957.283-1.472.283zm-1.414-2.586a2.022 2.022 0 0 0 2.142.453l.036-.016c.242-.101.463-.25.65-.437l3.755-3.754c.28-.278.712-.376 1.097-.212a6.9 6.9 0 0 0 1.332.416c.44.089.909.136 1.402.136a6.98 6.98 0 0 0 4.95-2.05A6.98 6.98 0 0 0 20 8.999c0-.433-.037-.847-.105-1.238l-3.067 3.066c-.689.689-1.856 1.172-2.828 1.172a3.988 3.988 0 0 1-2.828-1.172A4.006 4.006 0 0 1 10 7.999c0-1.056.425-2.081 1.172-2.828l3.066-3.066A7.045 7.045 0 0 0 13 1.999a6.98 6.98 0 0 0-4.95 2.05A6.982 6.982 0 0 0 6 8.999c0 .493.047.962.136 1.401.088.436.22.862.391 1.275a.999.999 0 0 1-.187 1.155l-3.754 3.755A1.975 1.975 0 0 0 2 17.999c0 .534.206 1.018.543 1.374l.043.04z" class="f-icon wrench"/></svg>