<svg xmlns="http://www.w3.org/2000/svg" preserveAspectRatio="xMidYMid" width="46" height="60" viewBox="0 0 46 60"><defs><style>.moneyyandex-1{fill:#fc0}.moneyyandex-1,.moneyyandex-2,.moneyyandex-3{fill-rule:evenodd}.moneyyandex-2{fill:#d6ab05}.moneyyandex-3{fill:#030303}</style></defs><path d="M.001 29.763c0-3.37.284-5.508 7.318-10.716C13.141 14.735 31.805 0 31.805 0v24.598h14.194V60H4.434C1.996 60 0 58.02 0 55.601l.001-25.838z" class="moneyyandex-1"/><path d="M31.805 24.598V38.85L5.724 56.477l32.975-10.644V24.598h-6.894z" class="moneyyandex-2"/><path d="M19.887 23.86c1.525-1.802 3.753-2.439 4.976-1.421 1.223 1.018.978 3.306-.547 5.109-1.524 1.802-3.753 2.438-4.976 1.42-1.223-1.018-.978-3.305.547-5.108" class="moneyyandex-3"/></svg>