<svg xmlns="http://www.w3.org/2000/svg" preserveAspectRatio="xMidYMid" width="60" height="55" viewBox="0 0 60 55"><defs><style>.terminal-1{fill:#e9eff0}.terminal-2{fill:#d6d9d9}.terminal-3{fill:#707276}.terminal-3,.terminal-6{fill-rule:evenodd}.terminal-4{fill:#d3e4e5}.terminal-5{fill:#a0cfd9}.terminal-6,.terminal-7{fill:#6aaeba}</style></defs><rect width="60" height="20" rx="2" ry="2" class="terminal-1"/><rect x="6" y="6" width="48" height="8" rx="2" ry="2" class="terminal-2"/><path d="M10 8h40a2 2 0 1 1 0 4H10a2 2 0 1 1 0-4z" class="terminal-3"/><path class="terminal-1" d="M10 9h40v46H10z"/><path class="terminal-4" d="M10 9h40v26H10z"/><path class="terminal-5" d="M13 9h29v23H13z"/><path d="M19 21h2.277c.347-.595.985-1 1.723-1h2a2 2 0 0 1 2-2h1a1 1 0 0 1 0-2h6v-1a2 2 0 1 1 0-4v-1H23a1.994 1.994 0 0 1-1.723-1H42v23h-8v-1a2 2 0 0 1-2-2h-4a1 1 0 0 1 0-2h1v-1h-2a2 2 0 0 1-2-2h-2a1.994 1.994 0 0 1-1.723-1H19a1 1 0 0 1 0-2zm27 31a2 2 0 0 1-2-2V35a2 2 0 1 1 4 0v15a2 2 0 0 1-2 2zm0-21a2 2 0 0 1-2-2V16a2 2 0 1 1 4 0v13a2 2 0 0 1-2 2z" class="terminal-6"/><ellipse cx="17" cy="45" rx="4" ry="7" class="terminal-7"/><path class="terminal-4" d="M23 35h19v20H23z"/></svg>